<svg width="45" height="43" viewBox="0 0 45 43" fill="none" xmlns="http://www.w3.org/2000/svg">
<path fill-rule="evenodd" clip-rule="evenodd" d="M40.2846 5.8125H9.78179L7.17557 1.05284C6.88303 0.518596 6.32962 0.1875 5.72919 0.1875H2.41669C1.50197 0.1875 0.760437 0.94302 0.760437 1.875C0.760437 2.80698 1.50196 3.5625 2.41669 3.5625H4.75663L7.32867 8.25972L13.2604 21.632L13.2665 21.6456L13.789 22.8234L7.83343 29.2959C7.40521 29.7612 7.27116 30.4329 7.48699 31.0317C7.70281 31.6305 8.23161 32.0542 8.85366 32.1266L14.282 32.7587C21.072 33.5493 27.9282 33.5493 34.7181 32.7587L40.1465 32.1266C41.0553 32.0208 41.7078 31.1843 41.6039 30.2584C41.5001 29.3324 40.6791 28.6676 39.7703 28.7734L34.342 29.4055C27.802 30.167 21.1981 30.167 14.6582 29.4055L12.5039 29.1547L16.875 24.4042C16.9173 24.3582 16.9566 24.3105 16.9928 24.2612L18.6553 24.4816C20.9849 24.7905 23.3398 24.851 25.6817 24.6623C31.144 24.2221 36.2064 21.5739 39.7408 17.3079L41.0173 15.7671C41.0602 15.7153 41.1 15.661 41.1364 15.6044L43.5156 11.9102C45.202 9.29173 43.3585 5.8125 40.2846 5.8125ZM17.116 20.8741C16.7507 20.8257 16.4357 20.5893 16.2819 20.2486L16.2789 20.242L11.3753 9.1875H25.83H40.2846C40.7237 9.1875 40.9871 9.68453 40.7462 10.0586L38.4217 13.6678L37.2095 15.1309C34.2459 18.7081 30.0008 20.9287 25.4206 21.2978C23.3081 21.468 21.184 21.4134 19.0827 21.1348L17.116 20.8741Z" fill="white"/>
<path d="M12.3542 35.625C10.5247 35.625 9.04169 37.136 9.04169 39C9.04169 40.864 10.5247 42.375 12.3542 42.375C14.1836 42.375 15.6667 40.864 15.6667 39C15.6667 37.136 14.1836 35.625 12.3542 35.625Z" fill="white"/>
<path d="M33.3334 39C33.3334 37.136 34.8164 35.625 36.6459 35.625C38.4753 35.625 39.9584 37.136 39.9584 39C39.9584 40.864 38.4753 42.375 36.6459 42.375C34.8164 42.375 33.3334 40.864 33.3334 39Z" fill="white"/>
</svg>
