<svg width="64" height="64" viewBox="0 0 64 64" fill="none" xmlns="http://www.w3.org/2000/svg">
<path d="M0.762207 21.1871C0.762207 13.7125 0.762207 9.97525 2.23991 7.13056C3.48515 4.73337 5.43973 2.77879 7.83692 1.53355C10.6816 0.0558472 14.4189 0.0558472 21.8935 0.0558472H42.631C50.1055 0.0558472 53.8428 0.0558472 56.6875 1.53355C59.0847 2.77879 61.0393 4.73337 62.2845 7.13056C63.7622 9.97525 63.7622 13.7125 63.7622 21.1871V41.9246C63.7622 49.3992 63.7622 53.1364 62.2845 55.9811C61.0393 58.3783 59.0847 60.3329 56.6875 61.5781C53.8428 63.0558 50.1055 63.0558 42.631 63.0558H21.8935C14.4189 63.0558 10.6816 63.0558 7.83692 61.5781C5.43973 60.3329 3.48515 58.3783 2.23991 55.9811C0.762207 53.1364 0.762207 49.3992 0.762207 41.9246V21.1871Z" fill="url(#paint0_linear_2_998)"/>
<path d="M44.5122 40.3058L45.9122 31.5558H37.5122V25.4308C37.5122 22.9808 38.3872 21.0558 42.2372 21.0558H46.2622V13.0058C43.9872 12.6558 41.5372 12.3058 39.2622 12.3058C32.0872 12.3058 27.0122 16.6808 27.0122 24.5558V31.5558H19.1372V40.3058H27.0122V63.0558C30.5122 63.0558 34.0122 63.0558 37.5122 63.0558V40.3058H44.5122Z" fill="white"/>
<defs>
<linearGradient id="paint0_linear_2_998" x1="32.2622" y1="61.2151" x2="32.2622" y2="0.0558472" gradientUnits="userSpaceOnUse">
<stop stop-color="#0062E0"/>
<stop offset="1" stop-color="#19AFFF"/>
</linearGradient>
</defs>
</svg>
