<svg width="64" height="64" viewBox="0 0 64 64" fill="none" xmlns="http://www.w3.org/2000/svg">
<g clip-path="url(#clip0_2_994)">
<path d="M0.279175 21.3925C0.279175 13.9062 0.279175 10.163 1.75921 7.31379C3.00642 4.91282 4.96408 2.95515 7.36506 1.70794C10.2142 0.227905 13.9574 0.227905 21.4438 0.227905H42.2141C49.7005 0.227905 53.4436 0.227905 56.2928 1.70794C58.6938 2.95515 60.6515 4.91282 61.8987 7.31379C63.3787 10.163 63.3787 13.9062 63.3787 21.3925V42.1628C63.3787 49.6492 63.3787 53.3924 61.8987 56.2416C60.6515 58.6425 58.6938 60.6002 56.2928 61.8474C53.4436 63.3274 49.7005 63.3274 42.2141 63.3274H21.4438C13.9574 63.3274 10.2142 63.3274 7.36506 61.8474C4.96408 60.6002 3.00642 58.6425 1.75921 56.2416C0.279175 53.3924 0.279175 49.6492 0.279175 42.1628V21.3925Z" fill="url(#paint0_radial_2_994)"/>
<path d="M0.279175 21.3925C0.279175 13.9062 0.279175 10.163 1.75921 7.31379C3.00642 4.91282 4.96408 2.95515 7.36506 1.70794C10.2142 0.227905 13.9574 0.227905 21.4438 0.227905H42.2141C49.7005 0.227905 53.4436 0.227905 56.2928 1.70794C58.6938 2.95515 60.6515 4.91282 61.8987 7.31379C63.3787 10.163 63.3787 13.9062 63.3787 21.3925V42.1628C63.3787 49.6492 63.3787 53.3924 61.8987 56.2416C60.6515 58.6425 58.6938 60.6002 56.2928 61.8474C53.4436 63.3274 49.7005 63.3274 42.2141 63.3274H21.4438C13.9574 63.3274 10.2142 63.3274 7.36506 61.8474C4.96408 60.6002 3.00642 58.6425 1.75921 56.2416C0.279175 53.3924 0.279175 49.6492 0.279175 42.1628V21.3925Z" fill="url(#paint1_radial_2_994)"/>
<path d="M31.7939 8.83238C25.5625 8.83238 24.7805 8.85963 22.3331 8.97101C19.8904 9.08287 18.2231 9.46959 16.7642 10.037C15.2551 10.6231 13.975 11.407 12.6997 12.6829C11.4234 13.9583 10.6394 15.2384 10.0515 16.7471C9.48266 18.2065 9.09547 19.8743 8.98553 22.3161C8.87606 24.7636 8.84738 25.5461 8.84738 31.7777C8.84738 38.0092 8.87511 38.7889 8.98601 41.2364C9.09834 43.6791 9.48505 45.3465 10.052 46.8054C10.6385 48.3145 11.4224 49.5947 12.6982 50.8701C13.9731 52.1464 15.2532 52.9323 16.7614 53.5183C18.2212 54.0857 19.889 54.4725 22.3312 54.5843C24.7786 54.6957 25.5601 54.723 31.791 54.723C38.0229 54.723 38.8025 54.6957 41.2499 54.5843C43.6926 54.4725 45.3618 54.0857 46.8216 53.5183C48.3302 52.9323 49.6084 52.1464 50.8833 50.8701C52.1596 49.5947 52.9435 48.3145 53.5315 46.8059C54.0955 45.3465 54.4827 43.6786 54.5975 41.2369C54.7074 38.7894 54.7361 38.0092 54.7361 31.7777C54.7361 25.5461 54.7074 24.7641 54.5975 22.3166C54.4827 19.8738 54.0955 18.2065 53.5315 16.7475C52.9435 15.2384 52.1596 13.9583 50.8833 12.6829C49.607 11.4066 48.3307 10.6226 46.8202 10.037C45.3575 9.46959 43.6892 9.08287 41.2466 8.97101C38.7992 8.85963 38.02 8.83238 31.7867 8.83238H31.7939ZM29.7356 12.9673C30.3465 12.9664 31.0281 12.9673 31.7939 12.9673C37.9201 12.9673 38.6462 12.9893 41.0654 13.0992C43.3025 13.2015 44.5167 13.5754 45.3255 13.8894C46.3962 14.3053 47.1596 14.8025 47.9622 15.6055C48.7652 16.4086 49.2624 17.1735 49.6792 18.2443C49.9932 19.0521 50.3675 20.2663 50.4693 22.5035C50.5793 24.9223 50.6032 25.6489 50.6032 31.7724C50.6032 37.8959 50.5793 38.6225 50.4693 41.0413C50.3671 43.2785 49.9932 44.4927 49.6792 45.3006C49.2633 46.3713 48.7652 47.1338 47.9622 47.9364C47.1591 48.7395 46.3967 49.2366 45.3255 49.6525C44.5176 49.968 43.3025 50.3409 41.0654 50.4432C38.6467 50.5531 37.9201 50.577 31.7939 50.577C25.6672 50.577 24.9411 50.5531 22.5224 50.4432C20.2853 50.3399 19.0711 49.9661 18.2618 49.652C17.1911 49.2362 16.4263 48.739 15.6232 47.9359C14.8201 47.1328 14.323 46.3699 13.9062 45.2987C13.5921 44.4908 13.2178 43.2766 13.116 41.0394C13.0061 38.6206 12.9841 37.894 12.9841 31.7667C12.9841 25.6393 13.0061 24.9165 13.116 22.4977C13.2183 20.2606 13.5921 19.0464 13.9062 18.2376C14.3221 17.1668 14.8201 16.4019 15.6232 15.5989C16.4263 14.7958 17.1911 14.2986 18.2618 13.8818C19.0706 13.5663 20.2853 13.1934 22.5224 13.0906C24.639 12.995 25.4593 12.9664 29.7356 12.9616V12.9673ZM44.0415 16.7772C42.5214 16.7772 41.2882 18.0091 41.2882 19.5297C41.2882 21.0498 42.5214 22.2831 44.0415 22.2831C45.5616 22.2831 46.7949 21.0498 46.7949 19.5297C46.7949 18.0095 45.5616 16.7762 44.0415 16.7762V16.7772ZM31.7939 19.9943C25.2867 19.9943 20.0109 25.2703 20.0109 31.7777C20.0109 38.285 25.2867 43.5586 31.7939 43.5586C38.3011 43.5586 43.575 38.285 43.575 31.7777C43.575 25.2703 38.3006 19.9943 31.7934 19.9943H31.7939ZM31.7939 24.1292C36.0176 24.1292 39.4421 27.5533 39.4421 31.7777C39.4421 36.0015 36.0176 39.4261 31.7939 39.4261C27.5697 39.4261 24.1457 36.0015 24.1457 31.7777C24.1457 27.5533 27.5697 24.1292 31.7939 24.1292Z" fill="white"/>
</g>
<defs>
<radialGradient id="paint0_radial_2_994" cx="0" cy="0" r="1" gradientUnits="userSpaceOnUse" gradientTransform="translate(17.0401 68.1874) rotate(-90) scale(62.5363 58.1637)">
<stop stop-color="#FFDD55"/>
<stop offset="0.1" stop-color="#FFDD55"/>
<stop offset="0.5" stop-color="#FF543E"/>
<stop offset="1" stop-color="#C837AB"/>
</radialGradient>
<radialGradient id="paint1_radial_2_994" cx="0" cy="0" r="1" gradientTransform="matrix(5.48674 27.4102 -112.984 22.6288 -10.2903 4.77349)" gradientUnits="userSpaceOnUse">
<stop stop-color="#3771C8"/>
<stop offset="0.128" stop-color="#3771C8"/>
<stop offset="1" stop-color="#6600FF" stop-opacity="0"/>
</radialGradient>
<clipPath id="clip0_2_994">
<rect width="63.0995" height="63.0995" fill="white" transform="translate(0.243164 0.227905)"/>
</clipPath>
</defs>
</svg>
