<svg width="64" height="64" viewBox="0 0 64 64" fill="none" xmlns="http://www.w3.org/2000/svg">
<path d="M0.634186 21.3926C0.634186 13.9062 0.634186 10.163 2.11422 7.31381C3.36143 4.91283 5.3191 2.95516 7.72007 1.70795C10.5693 0.227921 14.3124 0.227921 21.7988 0.227921H42.5691C50.0555 0.227921 53.7987 0.227921 56.6478 1.70795C59.0488 2.95516 61.0065 4.91283 62.2537 7.31381C63.7337 10.163 63.7337 13.9062 63.7337 21.3926V42.1628C63.7337 49.6492 63.7337 53.3924 62.2537 56.2416C61.0065 58.6426 59.0488 60.6002 56.6478 61.8474C53.7987 63.3275 50.0555 63.3275 42.5691 63.3275H21.7988C14.3124 63.3275 10.5693 63.3275 7.72007 61.8474C5.3191 60.6002 3.36143 58.6426 2.11422 56.2416C0.634186 53.3924 0.634186 49.6492 0.634186 42.1628V21.3926Z" fill="url(#paint0_linear_2_995)"/>
<path fill-rule="evenodd" clip-rule="evenodd" d="M34.0163 8.89444C39.6015 9.16893 44.8059 11.4721 48.781 15.4499C53.021 19.6926 55.3549 25.3323 55.3526 31.3298C55.3475 43.7064 45.272 53.7765 32.8947 53.7765H32.8854C29.1267 53.7752 25.4335 52.8327 22.1533 51.0443L10.2479 54.1657L13.434 42.5339C11.4687 39.1298 10.4346 35.2683 10.4362 31.312C10.4412 18.9358 20.5158 8.86668 32.8944 8.86668L34.0163 8.89444ZM22.7048 46.9807L23.3865 47.385C26.2524 49.0848 29.5376 49.9842 32.8871 49.9855H32.8946C43.183 49.9855 51.5566 41.6159 51.5607 31.3285C51.5626 26.3434 49.6229 21.6559 46.0987 18.1295C42.5744 14.6028 37.8878 12.6595 32.9021 12.6579C22.6058 12.6579 14.2321 21.0267 14.228 31.3133C14.2266 34.8387 15.2134 38.2719 17.0819 41.2423L17.5258 41.9483L15.6401 48.8329L22.7048 46.9807ZM44.2088 36.6676C44.0686 36.4335 43.6945 36.2932 43.1334 36.0125C42.5722 35.7317 39.8134 34.3749 39.299 34.1875C38.7846 34.0006 38.4105 33.9071 38.0365 34.4684C37.6624 35.0298 36.587 36.2932 36.2596 36.6676C35.9323 37.0419 35.605 37.0887 35.0439 36.808C34.4828 36.5273 32.6747 35.9349 30.5313 34.0241C28.8631 32.5369 27.7369 30.7003 27.4095 30.1388C27.0823 29.5774 27.3746 29.2737 27.6555 28.9941C27.908 28.7427 28.2168 28.339 28.4974 28.0115C28.7779 27.6841 28.8714 27.4499 29.0585 27.0758C29.2455 26.7014 29.152 26.374 29.0117 26.0932C28.8714 25.8124 27.7492 23.0516 27.2816 21.9286C26.826 20.835 26.3634 20.9831 26.019 20.9658C25.692 20.9496 25.3176 20.946 24.9436 20.946C24.5694 20.946 23.9615 21.0863 23.4471 21.6479C22.9327 22.2094 21.4831 23.5664 21.4831 26.3269C21.4831 29.0877 23.4939 31.7545 23.7745 32.1289C24.0551 32.5034 27.7314 38.1683 33.3605 40.5979C34.6993 41.1758 35.7446 41.5209 36.5595 41.7794C37.9038 42.2062 39.127 42.1461 40.094 42.0016C41.1721 41.8406 43.414 40.6448 43.8815 39.3348C44.3491 38.0244 44.3491 36.9015 44.2088 36.6676Z" fill="white"/>
<defs>
<linearGradient id="paint0_linear_2_995" x1="32.184" y1="63.3275" x2="32.184" y2="0.227921" gradientUnits="userSpaceOnUse">
<stop stop-color="#25CF43"/>
<stop offset="1" stop-color="#61FD7D"/>
</linearGradient>
</defs>
</svg>
