<svg width="1920" height="707" viewBox="0 0 1920 707" fill="none" xmlns="http://www.w3.org/2000/svg" xmlns:xlink="http://www.w3.org/1999/xlink">
<path d="M-4 152.5L1916 64V687H-4V152.5Z" fill="#0349AE"/>
<path d="M-2 161.5L1918 73V696H-2V161.5Z" fill="white"/>
<path d="M-2 172.5L1918 84V707H-2V172.5Z" fill="url(#paint0_linear_60_767)"/>
<path style="mix-blend-mode:color-dodge" opacity="0.19" d="M1097.56 233.176H1059.53L1040.1 199.502L1059.15 166.451L1040.1 133.4L1059.53 99.6907H1097.56L1116.23 67.2981L1097.21 34.2819L1116.61 0.572754H1155.46L1174.48 33.6236H1211.81L1230.82 0.572754H1269.68L1288.69 33.6236H1326.03L1345.08 0.572754H1383.9L1402.95 33.6236H1440.25L1459.3 0.572754H1498.12L1517.17 33.6236H1554.5L1573.51 0.572754H1612.37L1631.38 33.6236H1668.72L1687.77 0.572754H1726.59L1745.78 33.6236H1782.94L1801.99 0.572754H1840.81L1859.86 33.6236H1897.16L1916.2 0.572754H1955.03L1973.94 33.6236H2011.27L2030.28 0.572754H2069.28L2088.29 33.6236H2125.63L2144.68 0.572754H2183.5L2202.55 33.6236H2240.57L2260 67.2981L2240.57 101.007H2202.55L2183.88 133.4L2202.89 166.451L2183.88 199.502L2202.55 231.894H2240.57L2260 265.569L2240.57 299.278H2202.55L2183.88 331.67L2202.89 364.721L2183.88 397.772L2202.55 430.165H2240.57L2260 463.839L2240.57 497.548H2202.55L2183.88 529.941L2202.89 562.992L2183.88 596.043L2202.55 628.435H2240.57L2260 662.11L2240.57 695.819H2202.55L2183.88 728.212L2202.89 761.262L2183.88 794.313L2202.55 826.706H2240.57L2260 860.38L2240.57 894.089H2202.55L2183.88 926.482L2202.89 959.533L2183.5 993.242H2145.47L2126.46 1026.26H2087.6L2068.59 993.242H2031.25L2012.24 1026.26H1973.24L1954.2 993.242H1916.9L1897.85 1026.26H1859.03L1839.98 993.242H1802.68L1783.63 1026.26H1744.81L1725.76 993.242H1688.42L1669.41 1026.26H1630.55L1611.54 993.242H1574.21L1555.16 1026.26H1516.34L1497.29 993.242H1459.99L1440.94 1026.26H1402.12L1383.07 993.242H1345.77L1326.72 1026.26H1287.9L1268.85 993.242H1231.52L1212.5 1026.26H1173.65L1154.63 993.242H1117.3L1098.25 1026.26H1059.43L1040 992.584L1059.05 959.533L1040 926.482L1059.43 892.773H1097.45L1116.12 860.38L1097.45 827.988H1059.43L1040 794.313L1059.05 761.262L1040 728.212L1059.43 694.503H1097.45L1116.12 662.11L1097.45 629.717H1059.43L1040 596.043L1059.05 562.992L1040 529.941L1059.43 496.232H1097.45L1116.12 463.839L1097.45 431.447H1059.43L1040 397.772L1059.05 364.721L1040 331.67L1059.43 297.961H1097.45L1116.12 265.569L1097.56 233.176ZM1117.37 264.91H1154.63L1173.23 232.587L1154.56 200.16H1117.3L1098.63 232.552L1117.37 264.91ZM1117.37 332.329L1098.7 364.721L1117.37 397.114H1154.63L1173.27 364.721L1154.63 332.329H1117.37ZM1117.37 530.599L1098.7 562.992L1117.37 595.384H1154.63L1173.27 562.992L1154.63 530.599H1117.37ZM1117.37 728.87L1098.7 761.262L1117.37 793.655H1154.63L1173.27 761.262L1154.63 728.87H1117.37ZM1117.37 927.14L1098.7 959.533L1117.37 991.926H1154.63L1173.27 959.533L1154.63 927.036L1117.37 927.14ZM1211.74 958.875L1230.38 926.482L1211.74 894.089H1174.48L1155.81 926.482L1174.48 958.875H1211.74ZM1325.82 958.875L1344.49 926.482L1325.82 894.089H1288.56L1269.92 926.482L1288.56 958.875H1325.82ZM1439.9 958.875L1458.57 926.482L1439.9 894.089H1402.67L1384 926.482L1402.67 958.875H1439.9ZM1553.98 958.875L1572.93 926.482L1554.29 894.089H1517.03L1498.36 926.482L1517.03 958.875H1553.98ZM1668.06 958.875L1686.73 926.482L1668.06 894.089H1630.8L1612.13 926.482L1630.8 958.875H1668.06ZM1782.14 958.875L1800.81 926.482L1782.14 894.089H1745.78L1727.11 926.482L1745.78 958.875H1782.14ZM1896.22 958.875L1914.89 926.482L1896.22 894.089H1859.86L1841.19 926.482L1859.86 958.875H1896.22ZM2010.48 958.875L2029.11 926.482L2010.48 894.089H1973.94L1955.27 926.482L1973.94 958.875H2010.48ZM2124.56 958.875L2143.22 926.482L2124.56 894.089H2087.29L2068.62 926.482L2087.29 958.875H2124.56ZM2031.25 67.8524L2012.55 100.314L2031.18 132.638H2068.45L2087.12 100.21L2068.52 67.8524H2031.25ZM1917.17 67.8524L1898.47 100.314L1917.1 132.638H1954.2L1972.9 100.21L1954.27 67.8524H1917.17ZM1803.09 67.8524L1784.39 100.314L1803.02 132.638H1839.98L1858.68 100.21L1840.05 67.8524H1803.09ZM1689.01 67.8524L1670.34 100.314L1688.94 132.638H1725.76L1744.46 100.21L1725.83 67.8524H1689.01ZM1574.93 67.8524L1555.64 100.418L1574.28 132.742H1611.54L1630.21 100.314L1611.61 67.9563L1574.93 67.8524ZM1460.85 67.8524L1441.56 100.418L1460.19 132.742H1497.29L1515.99 100.314L1497.36 67.9563L1460.85 67.8524ZM1346.77 67.8524L1328.07 100.314L1346.7 132.638H1383.07L1401.77 100.21L1383.14 67.8524H1346.77ZM1232.52 67.8524L1213.85 100.314L1232.45 132.638H1268.71L1287.42 100.21L1268.78 67.8524H1232.52ZM1118.23 133.954L1099.56 166.347L1118.23 198.739H1154.63L1173.27 166.347L1154.63 133.954H1118.23ZM1268.71 925.824L1287.42 893.397L1268.78 861.039H1231.52L1212.85 893.501L1231.45 925.824H1268.71ZM1382.79 925.824L1401.5 893.397L1383.14 861.212H1345.91L1327.21 893.674L1345.84 925.997L1382.79 925.824ZM1496.87 925.824L1515.58 893.397L1496.94 861.039H1459.71L1441.01 893.501L1459.64 925.824H1496.87ZM1610.95 925.824L1629.62 893.397L1611.02 861.039H1573.76L1555.05 893.501L1573.69 925.824H1610.95ZM1725.03 925.824L1743.74 893.397L1725.1 861.039H1687.84L1669.17 893.501L1687.77 925.824H1725.03ZM1839.11 925.824L1857.82 893.397L1839.18 861.039H1802.82L1784.11 893.501L1802.75 925.824H1839.11ZM1953.19 925.824L1971.9 893.397L1953.26 861.039H1916.03L1897.33 893.501L1915.96 925.824H1953.19ZM2067.45 925.824L2086.11 893.397L2067.52 861.039H2030.25L2011.55 893.501L2030.18 925.824H2067.45ZM2030.18 134.058L2011.51 166.451L2030.18 198.843H2068.45L2087.08 166.451L2068.45 134.058H2030.18ZM1916.1 134.058L1897.43 166.451L1916.1 198.843H1954.2L1972.86 166.451L1954.2 134.058H1916.1ZM1802.02 134.058L1783.35 166.451L1802.02 198.843H1839.98L1858.65 166.451L1839.98 134.058H1802.02ZM1687.77 134.058L1669.13 166.451L1687.77 198.843H1725.76L1744.43 166.451L1725.76 134.058H1687.77ZM1573.69 134.058L1555.02 166.451L1573.69 198.843H1611.54L1630.17 166.451L1611.54 134.058H1573.69ZM1459.61 134.058L1440.94 166.451L1459.61 198.843H1497.29L1515.96 166.451L1497.29 134.058H1459.61ZM1345.53 134.058L1326.86 166.451L1345.53 198.843H1383.07L1401.74 166.451L1383.07 134.058H1345.53ZM1231.45 134.058L1212.81 166.451L1231.45 198.843H1268.71L1287.38 166.451L1268.71 134.058H1231.45ZM1211.74 826.567L1230.38 794.175L1211.74 761.782H1174.48L1155.81 794.175L1174.48 826.567H1211.74ZM1268.92 859.584L1287.55 827.26L1268.85 794.833H1231.59L1212.99 827.156L1231.65 859.584H1268.92ZM1383 859.584L1401.63 827.26L1382.93 794.833H1345.7L1327.07 827.156L1345.77 859.584H1383ZM1497.08 859.584L1515.71 827.26L1497.01 794.833H1459.78L1441.15 827.156L1459.85 859.584H1497.08ZM1611.33 859.584L1629.93 827.26L1611.26 794.833H1574L1555.37 827.156L1574.07 859.584H1611.33ZM1725.41 859.584L1744.05 827.26L1725.34 794.833H1688.08L1669.48 827.156L1688.15 859.584H1725.41ZM1839.49 859.584L1858.13 827.26L1839.42 794.833H1802.19L1783.56 827.156L1802.26 859.584H1839.49ZM1953.57 859.584L1972.21 827.26L1953.5 794.833H1916.27L1897.64 827.156L1916.34 859.584H1953.57ZM2067.83 859.584L2086.43 827.26L2067.76 794.833H2030.49L2011.86 827.156L2030.56 859.584H2067.83ZM2125.56 826.567L2144.23 794.175L2125.56 761.782H2088.29L2069.62 794.175L2088.29 826.567H2125.56ZM2088.29 166.97L2069.62 199.363L2088.29 231.756H2125.56L2144.23 199.363L2125.56 166.97H2088.29ZM2031.18 200.021L2012.55 232.345L2031.25 264.772H2068.52L2087.12 232.449L2068.45 200.021H2031.18ZM1973.94 167.109L1955.27 199.502L1973.94 231.894H2011.34L2029.97 199.502L2011.34 167.109H1973.94ZM1916.83 200.16L1898.19 232.483L1916.9 264.91H1954.27L1972.9 232.587L1954.2 200.16H1916.83ZM1859.86 167.109L1841.19 199.502L1859.86 231.894H1897.09L1915.75 199.502L1897.09 167.109H1859.86ZM1802.75 200.16L1784.11 232.483L1802.82 264.91H1840.05L1858.68 232.587L1839.98 200.16H1802.75ZM1745.78 167.109L1727.11 199.502L1745.78 231.894H1782.87L1801.54 199.502L1782.87 167.109H1745.78ZM1688.63 200.16L1670.03 232.483L1688.7 264.91H1725.83L1744.46 232.587L1725.76 200.16H1688.63ZM1631.52 167.109L1612.85 199.502L1631.52 231.894H1668.65L1687.32 199.502L1668.65 167.109H1631.52ZM1574.41 200.16L1555.78 232.483L1574.48 264.91H1611.61L1630.21 232.587L1611.54 200.16H1574.41ZM1517.3 167.109L1498.64 199.502L1517.3 231.894H1554.43L1572.93 199.502L1554.29 167.109H1517.3ZM1460.19 200.16L1441.56 232.483L1460.26 264.91H1497.36L1515.99 232.587L1497.29 200.16H1460.19ZM1403.09 167.109L1384.42 199.502L1403.09 231.894H1440.18L1458.85 199.502L1440.18 167.109H1403.09ZM1345.98 200.16L1327.34 232.483L1346.05 264.91H1383.14L1401.77 232.587L1383.07 200.16H1345.98ZM1288.83 167.109L1270.2 199.502L1288.83 231.894H1325.96L1344.77 199.502L1326.1 167.109H1288.83ZM1231.72 200.16L1213.13 232.483L1231.79 264.91H1268.92L1287.55 232.587L1268.85 200.16H1231.72ZM1174.61 167.109L1155.95 199.502L1174.61 231.894H1211.74L1230.38 199.502L1211.74 167.109H1174.61ZM1268.71 793.655L1287.38 761.262L1268.71 728.87H1231.45L1212.81 761.262L1231.45 793.655H1268.71ZM1325.96 760.743L1344.63 728.35L1325.96 695.958H1288.69L1270.06 728.35L1288.69 760.743H1325.96ZM1383.07 793.794L1401.74 761.401L1383.07 729.008H1345.84L1327.17 761.401L1345.84 793.794H1383.07ZM1440.18 760.743L1458.85 728.35L1440.18 695.958H1402.95L1384.28 728.35L1402.95 760.743H1440.18ZM1497.29 793.794L1515.96 761.401L1497.29 729.008H1460.06L1441.39 761.401L1460.06 793.794H1497.29ZM1554.43 760.743L1572.93 728.212L1554.29 695.819H1517.03L1498.36 728.212L1517.03 760.604L1554.43 760.743ZM1611.54 793.794L1630.17 761.401L1611.54 729.008H1574.28L1555.61 761.401L1574.28 793.794H1611.54ZM1668.65 760.743L1687.32 728.35L1668.65 695.958H1631.38L1612.72 728.35L1631.38 760.743H1668.65ZM1725.76 793.794L1744.43 761.401L1725.76 729.008H1688.49L1669.86 761.401L1688.49 793.794H1725.76ZM1782.87 760.743L1801.54 728.35L1782.87 695.958H1745.78L1727.11 728.35L1745.78 760.743H1782.87ZM1839.98 793.794L1858.65 761.401L1839.98 729.008H1802.75L1784.08 761.401L1802.75 793.794H1839.98ZM1897.09 760.743L1915.75 728.35L1897.09 695.958H1859.86L1841.19 728.35L1859.86 760.743H1897.09ZM1954.2 793.794L1972.86 761.401L1954.2 729.008H1916.96L1898.3 761.401L1916.96 793.794H1954.2ZM2011.34 760.743L2029.97 728.35L2011.34 695.958H1973.94L1955.27 728.35L1973.94 760.743H2011.34ZM2068.45 793.794L2087.08 761.401L2068.45 729.008H2031.18L2012.52 761.401L2031.18 793.794H2068.45ZM2031.25 266.366L2012.55 298.827L2031.18 331.151H2068.45L2087.12 298.723L2068.52 266.366H2031.25ZM1917.17 266.366L1898.47 298.827L1916.96 331.151H1954.2L1972.9 298.723L1954.27 266.366H1917.17ZM1803.09 266.366L1784.39 298.827L1802.75 331.151H1839.98L1858.68 298.723L1840.05 266.366H1803.09ZM1689.01 266.366L1670.34 298.827L1688.49 331.151H1725.76L1744.46 298.723L1725.83 266.366H1689.01ZM1574.93 266.366L1556.23 298.827L1574.28 331.151H1611.54L1630.21 298.723L1611.61 266.366H1574.93ZM1460.85 266.366L1442.15 298.827L1460.06 331.151H1497.29L1515.99 298.723L1497.36 266.366H1460.85ZM1346.77 266.366L1328.07 298.827L1345.84 331.151H1383.07L1401.77 298.723L1383.14 266.366H1346.77ZM1232.52 266.366L1213.85 298.827L1231.59 331.151H1268.71L1287.42 298.723L1268.78 266.366H1232.52ZM1232.52 727.692H1268.71L1287.42 695.265L1268.78 662.907H1231.52L1212.85 695.369L1232.52 727.692ZM1384 727.692L1402.71 695.265L1384.07 662.907H1346.84L1328.14 695.369L1346.77 727.692H1384ZM1498.08 727.692L1516.79 695.265L1498.15 662.907H1460.92L1442.22 695.369L1460.85 727.692H1498.08ZM1612.16 727.692L1630.83 695.265L1612.23 662.907H1574.97L1556.26 695.369L1574.9 727.692H1612.16ZM1726.24 727.692L1744.95 695.265L1726.31 662.907H1689.05L1670.38 695.369L1688.98 727.692H1726.24ZM1840.32 727.692L1859.03 695.265L1840.39 662.907H1802.82L1784.11 695.369L1802.75 727.692H1840.32ZM1954.4 727.692L1973.11 695.265L1954.47 662.907H1917.24L1898.54 695.369L1917.17 727.692H1954.4ZM2068.66 727.692L2087.32 695.265L2068.73 662.907H2031.46L2012.76 695.369L2031.39 727.692H2068.66ZM2031.39 332.467L2012.72 364.86L2031.39 397.253H2068.45L2087.08 364.86L2068.45 332.467H2031.39ZM1917.31 332.467L1898.64 364.86L1917.31 397.253H1954.2L1972.86 364.86L1954.2 332.467H1917.31ZM1803.23 332.467L1784.56 364.86L1803.23 397.253H1839.98L1858.65 364.86L1839.98 332.467H1803.23ZM1688.98 332.467L1670.34 364.86L1688.49 396.975H1725.76L1744.43 364.583L1725.76 332.19L1688.98 332.467ZM1574.9 332.467L1556.23 364.86L1574.9 397.253H1611.54L1630.17 364.86L1611.54 332.467H1574.9ZM1460.82 332.467L1442.15 364.86L1460.82 397.253H1497.29L1515.96 364.86L1497.29 332.467H1460.82ZM1346.74 332.467L1328.07 364.86L1346.74 397.253H1383.07L1401.74 364.86L1383.07 332.467H1346.74ZM1232.66 332.467L1214.02 364.86L1231.59 396.975H1268.71L1287.38 364.583L1268.71 332.19L1232.66 332.467ZM1232.66 530.738L1214.02 563.13L1232.66 595.523H1268.71L1287.38 563.13L1268.71 530.738H1232.66ZM1383.14 661.452L1401.77 629.094L1383.07 596.666H1345.84L1327.21 628.99L1345.91 661.417L1383.14 661.452ZM1497.22 661.452L1515.99 629.094L1497.29 596.666H1460.06L1441.56 629.094L1460.26 661.521L1497.22 661.452ZM1611.47 661.452L1630.21 629.094L1611.54 596.666H1574.28L1555.64 629.094L1574.34 661.521L1611.47 661.452ZM1725.55 661.452L1744.46 629.094L1725.76 596.666H1688.49L1669.72 629.094L1688.39 661.521L1725.55 661.452ZM1839.63 661.452L1858.68 629.094L1839.98 596.666H1802.75L1784.11 628.99L1802.82 661.417L1839.63 661.452ZM1953.71 661.452L1972.9 629.094L1954.2 596.666H1916.96L1898.33 628.99L1917.03 661.417L1953.71 661.452ZM2067.79 595.384L2086.43 562.992L2067.79 530.599H2030.53L2011.86 562.992L2030.53 595.384H2067.79ZM1973.94 365.38L1955.27 397.772L1973.94 430.165H2011.34L2029.97 397.772L2011.34 365.38H1973.94ZM1916.83 398.43L1898.19 430.754L1916.9 463.181H1954.27L1972.9 430.858L1954.2 398.43H1916.83ZM1859.86 365.38L1841.19 397.772L1859.86 430.165H1897.09L1915.75 397.772L1897.09 365.38H1859.86ZM1802.75 398.43L1784.11 430.754L1802.82 463.181H1840.05L1858.68 430.858L1839.98 398.43H1802.75ZM1745.78 365.38L1727.11 397.772L1745.78 430.165H1782.87L1801.54 397.772L1782.87 365.38H1745.78ZM1688.63 398.43L1670.03 430.754L1688.7 463.181H1725.83L1744.46 430.858L1725.76 398.43H1688.63ZM1631.52 365.38L1612.85 397.772L1631.52 430.165H1668.65L1687.32 397.772L1668.65 365.38H1631.52ZM1574.41 398.43L1555.78 430.754L1574.48 463.181H1611.61L1630.21 430.858L1611.54 398.43H1574.41ZM1517.3 365.38L1498.64 397.772L1517.3 430.165H1554.43L1572.93 397.772L1554.29 365.38H1517.3ZM1460.19 398.43L1441.56 430.754L1460.26 463.181H1497.36L1515.99 430.858L1497.29 398.43H1460.19ZM1403.09 365.38L1384.42 397.772L1403.09 430.165H1440.18L1458.85 397.772L1440.18 365.38H1403.09ZM1345.98 398.43L1327.34 430.754L1346.05 463.181H1383.14L1401.77 430.858L1383.07 398.43H1345.98ZM1288.83 365.38L1270.2 397.772L1288.83 430.165H1325.96L1344.63 397.772L1325.96 365.38H1288.83ZM1326.1 562.334L1344.77 529.941L1326.1 497.548H1288.83L1270.2 529.941L1288.83 562.334H1326.1ZM1383.21 595.384L1401.88 562.992L1383.21 530.599H1345.98L1327.31 562.992L1345.98 595.384H1383.21ZM1440.32 562.334L1458.98 529.941L1440.32 497.548H1403.09L1384.42 529.941L1403.09 562.334H1440.32ZM1497.43 595.384L1516.09 562.992L1497.43 530.599H1460.19L1441.53 562.992L1460.19 595.384H1497.43ZM1554.57 562.334L1572.93 529.941L1554.29 497.548H1517.03L1498.36 529.941L1517.03 562.334H1554.57ZM1611.68 595.384L1630.31 562.992L1611.68 530.599H1574.41L1555.75 562.992L1574.41 595.384H1611.68ZM1668.79 562.334L1687.46 529.941L1668.79 497.548H1631.52L1612.85 529.941L1631.52 562.334H1668.79ZM1725.9 595.384L1744.57 562.992L1725.9 530.599H1688.63L1670 562.992L1688.63 595.384H1725.9ZM1783.01 562.334L1801.67 529.941L1783.01 497.548H1745.78L1727.11 529.941L1745.78 562.334H1783.01ZM1840.12 595.384L1858.78 562.992L1840.12 530.599H1802.88L1784.22 562.992L1802.88 595.384H1840.12ZM1897.23 562.334L1915.89 529.941L1897.23 497.548H1859.86L1841.19 529.941L1859.86 562.334H1897.23ZM1954.33 595.384L1973 562.992L1954.33 530.599H1917.1L1898.44 562.992L1917.1 595.384H1954.33ZM2011.48 562.334L2030.11 529.941L2011.48 497.548H1973.94L1955.27 529.941L1973.94 562.334H2011.48ZM1917.17 464.498L1898.47 496.959L1917.1 529.283H1954.2L1972.9 496.855L1954.27 464.498H1917.17ZM1803.09 464.498L1784.39 496.959L1803.02 529.283H1839.98L1858.68 496.855L1840.05 464.498H1803.09ZM1689.01 464.498L1670.34 496.959L1688.94 529.283H1725.76L1744.46 496.855L1725.83 464.498H1689.01ZM1574.93 464.498L1556.23 496.959L1574.86 529.283H1611.54L1630.21 496.855L1611.61 464.498H1574.93ZM1460.85 464.498L1442.15 496.959L1460.78 529.283H1497.29L1515.99 496.855L1497.36 464.498H1460.85ZM1346.77 464.498L1328.07 496.959L1346.7 529.283H1383.07L1401.77 496.855L1383.14 464.498H1346.77ZM1288.76 431.62L1270.13 464.013L1288.76 496.405H1326.03L1344.77 463.839L1326.1 431.447L1288.76 431.62ZM1403.02 431.62L1384.35 464.013L1403.02 496.405H1440.25L1458.85 463.839L1440.18 431.447L1403.02 431.62ZM1517.1 431.62L1498.43 464.013L1517.1 496.405H1554.5L1573.13 464.013L1554.5 431.62H1517.1ZM1631.18 431.62L1612.51 464.013L1631.18 496.405H1668.72L1687.39 464.013L1668.72 431.62H1631.18ZM1745.78 431.62L1727.11 464.013L1745.78 496.405H1782.94L1801.61 464.013L1782.94 431.62H1745.78ZM1859.86 431.62L1841.19 464.013L1859.86 496.405H1897.16L1915.82 464.013L1897.16 431.62H1859.86ZM1973.94 431.62L1955.27 464.013L1973.94 496.405H2011.41L2030.04 464.013L2011.41 431.62H1973.94ZM2011.13 628.609L2029.77 596.216L2011.13 563.823H1973.94L1955.27 596.216L1973.94 628.609H2011.13ZM1896.88 628.609L1915.55 596.216L1896.88 563.823H1859.86L1841.19 596.216L1859.86 628.609H1896.88ZM1782.8 628.609L1801.47 596.216L1782.8 563.823H1745.78L1727.11 596.216L1745.78 628.609H1782.8ZM1668.72 628.609L1687.39 596.216L1668.72 563.823H1631.45L1612.79 596.216L1631.45 628.609H1668.72ZM1554.64 628.609L1572.93 596.043L1554.29 563.65H1517.03L1498.36 596.043L1517.03 628.435L1554.64 628.609ZM1440.56 628.609L1459.23 596.216L1440.56 563.823H1403.33L1384.66 596.216L1403.33 628.609H1440.56ZM1326.48 628.609L1345.15 596.216L1326.48 563.823H1289.21L1270.58 596.216L1289.21 628.609H1326.48ZM1289.21 299.486L1270.58 331.878L1289.21 364.271H1325.96L1344.63 331.878L1325.96 299.486H1289.21ZM1403.47 299.486L1384.8 331.878L1403.47 364.271H1440.18L1458.85 331.878L1440.18 299.486H1403.47ZM1517.55 299.486L1498.88 331.878L1517.55 364.271H1554.43L1572.93 331.67L1554.29 299.278L1517.55 299.486ZM1631.63 299.486L1612.96 331.878L1631.63 364.271H1668.65L1687.32 331.878L1668.65 299.486H1631.63ZM1745.88 299.486L1727.21 331.878L1745.78 364.063H1782.87L1801.54 331.67L1782.87 299.278L1745.88 299.486ZM1859.96 299.486L1841.29 331.878L1859.86 364.063H1897.09L1915.75 331.67L1897.09 299.278L1859.96 299.486ZM1974.04 299.486L1955.37 331.878L1973.94 364.063H2011.34L2029.97 331.67L2011.34 299.278L1974.04 299.486ZM2068.41 398.638H2031.15L2012.52 430.962L2031.22 463.389H2068.52L2087.12 431.066L2068.41 398.638ZM2068.41 464.705H2031.15L2012.45 497.167L2031.08 529.491H2068.45L2087.12 497.063L2068.41 464.705ZM2068.41 596.909H2031.15L2012.52 629.232L2031.22 661.659H2068.52L2087.12 629.094L2068.41 596.909ZM2011.37 694.71L2030.01 662.318L2011.37 629.925H1974.11L1955.44 662.318L1974.11 694.71H2011.37ZM1897.12 694.71L1915.79 662.318L1897.12 629.925H1859.86L1841.19 662.318L1859.86 694.71H1897.12ZM1783.04 694.71L1801.71 662.318L1783.04 629.925H1745.78L1727.11 662.318L1745.78 694.71H1783.04ZM1668.96 694.71L1687.63 662.318L1668.96 629.925H1631.7L1613.03 662.318L1631.7 694.71H1668.96ZM1554.88 694.71L1573.51 662.318L1554.88 629.925H1517.62L1498.95 662.318L1517.62 694.71H1554.88ZM1440.8 694.71L1459.47 662.318L1440.8 629.925H1403.57L1384.9 662.318L1403.57 694.71H1440.8ZM1326.72 694.71L1345.39 662.318L1326.72 629.925H1288.76L1270.13 662.318L1288.76 694.71H1326.72ZM1232.35 661.659H1268.92L1287.55 629.094L1268.85 596.666H1231.59L1212.99 628.99L1232.35 661.659ZM1232.35 529.491H1268.71L1287.42 497.063L1268.78 464.705H1231.52L1212.85 497.167L1232.35 529.491ZM1232.35 463.389H1268.92L1287.55 431.066L1268.85 398.638H1231.59L1212.99 430.962L1232.35 463.389ZM1288.76 233.176L1270.13 265.569L1288.76 297.961H1326.03L1344.7 265.569L1326.03 233.176H1288.76ZM1403.02 233.176L1384.35 265.569L1403.02 297.961H1440.25L1458.92 265.569L1440.25 233.176H1403.02ZM1517.1 233.176L1498.43 265.569L1517.1 297.961H1554.5L1573.13 265.569L1554.5 233.176H1517.1ZM1631.18 233.176L1612.51 265.569L1631.18 297.961H1668.72L1687.39 265.569L1668.72 233.176H1631.18ZM1745.43 233.176L1726.76 265.569L1745.43 297.961H1782.94L1801.61 265.569L1782.94 233.176H1745.43ZM1859.51 233.176L1840.84 265.569L1859.51 297.961H1897.16L1915.82 265.569L1897.16 233.176H1859.51ZM1973.59 233.176L1954.92 265.569L1973.59 297.961H2011.41L2030.04 265.569L2011.41 233.176H1973.59ZM2087.67 233.176L2069.04 265.569L2087.67 297.961H2125.63L2144.3 265.569L2125.63 233.176H2087.67ZM2087.67 299.278L2069 331.67L2087.67 364.063H2125.56L2144.23 331.67L2125.56 299.278H2087.67ZM2087.67 365.38L2069 397.772L2087.67 430.165H2125.56L2144.23 397.772L2125.56 365.38H2087.67ZM2087.67 431.447L2069.04 463.839L2087.67 496.232H2125.63L2144.3 463.839L2125.63 431.447H2087.67ZM2087.67 497.548L2069 529.941L2087.67 562.334H2125.56L2144.23 529.941L2125.56 497.548H2087.67ZM2087.67 563.65L2069 596.043L2087.67 628.435H2125.56L2144.23 596.043L2125.56 563.65H2087.67ZM2087.67 629.717L2069.04 662.11L2087.67 694.503H2125.63L2144.3 662.11L2125.63 629.717H2087.67ZM2087.67 695.819L2069 728.212L2087.67 760.604H2125.56L2144.23 728.212L2125.56 695.819H2087.67ZM2011.34 826.567L2029.97 794.175L2011.34 761.782H1973.94L1955.27 794.175L1973.94 826.567H2011.34ZM1897.09 826.567L1915.75 794.175L1897.09 761.782H1859.86L1841.19 794.175L1859.86 826.567H1897.09ZM1783.01 826.567L1801.67 794.175L1783.01 761.782H1745.78L1727.11 794.175L1745.78 826.567H1783.01ZM1668.93 826.567L1687.59 794.175L1668.93 761.782H1631.66L1612.99 794.175L1631.66 826.567H1668.93ZM1554.85 826.567L1572.93 794.313L1554.29 761.921H1517.03L1498.36 794.313L1517.03 826.706L1554.85 826.567ZM1440.77 826.567L1459.43 794.175L1440.77 761.782H1403.54L1384.87 794.175L1403.54 826.567H1440.77ZM1326.69 826.567L1345.35 794.175L1326.69 761.782H1289.42L1270.79 794.175L1288.69 826.567H1326.69ZM1174.48 760.743H1211.74L1230.38 728.35L1211.74 695.958H1174.48L1155.81 728.35L1174.48 760.743ZM1211.81 694.641L1230.44 662.248L1211.81 629.856H1174.55L1155.88 662.248L1174.55 694.641H1211.81ZM1211.81 628.574L1230.44 596.181L1211.81 563.789H1174.55L1155.88 596.181L1174.55 628.574H1211.81ZM1174.55 562.472H1211.74L1230.38 530.08L1211.74 497.687H1174.48L1155.81 530.08L1174.55 562.472ZM1211.88 496.37L1230.51 463.978L1211.88 431.585H1174.61L1155.95 463.978L1174.61 496.37H1211.88ZM1211.88 430.303L1230.51 397.911L1211.88 365.518H1174.61L1155.95 397.911L1174.61 430.303H1211.88ZM1174.61 364.202H1211.74L1230.38 331.809L1211.74 299.416H1174.48L1155.81 331.809L1174.61 364.202ZM1211.95 298.1L1230.58 265.707L1211.95 233.315H1174.68L1156.02 265.707L1174.68 298.1H1211.95ZM1174.61 101.146L1155.95 133.538L1174.61 165.931H1211.74L1230.38 133.538L1211.74 101.146H1174.61ZM1288.69 101.146L1270.06 133.538L1288.69 165.931H1325.96L1344.63 133.538L1325.96 101.146H1288.69ZM1402.95 101.146L1384.28 133.538L1402.95 165.931H1440.18L1458.85 133.538L1440.18 101.146H1402.95ZM1517.03 101.146L1498.36 133.538L1517.03 165.931H1554.43L1572.93 133.4L1554.29 101.007L1517.03 101.146ZM1631.11 101.146L1612.44 133.538L1631.11 165.931H1668.65L1687.32 133.538L1668.65 101.146H1631.11ZM1745.36 101.146L1726.69 133.538L1745.36 165.931H1782.87L1801.54 133.538L1782.87 101.146H1745.36ZM1859.44 101.146L1840.77 133.538L1859.44 165.931H1897.09L1915.75 133.538L1897.09 101.146H1859.44ZM1973.52 101.146L1954.85 133.538L1973.52 165.931H2011.34L2029.97 133.538L2011.34 101.146H1973.52ZM2087.6 101.146L2068.93 133.538L2087.6 165.931H2125.56L2144.23 133.538L2125.56 101.146H2087.6ZM2124.94 892.912L2143.6 860.519L2124.94 828.126H2088.36L2069.73 860.519L2088.36 892.912H2124.94ZM2010.86 892.912L2029.49 860.519L2010.86 828.126H1973.59L1954.92 860.519L1973.59 892.912H2010.86ZM1896.6 892.912L1915.27 860.519L1896.6 828.126H1859.86L1841.19 860.519L1859.86 892.912H1896.6ZM1782.52 892.912L1801.19 860.519L1782.52 828.126H1745.78L1727.11 860.519L1745.78 892.912H1782.52ZM1668.44 892.912L1687.11 860.519L1668.44 828.126H1631.18L1612.51 860.519L1631.18 892.912H1668.44ZM1554.36 892.912L1573 860.519L1554.36 828.126H1517.1L1498.43 860.519L1517.1 892.912H1554.36ZM1440.28 892.912L1458.95 860.519L1440.28 828.126H1403.05L1384.38 860.519L1403.05 892.912H1440.28ZM1326.2 892.912L1344.87 860.519L1326.2 828.126H1288.76L1270.13 860.519L1288.76 892.912H1326.2ZM1212.12 892.912L1230.76 860.519L1212.12 828.126H1174.86L1156.19 860.519L1174.86 892.912H1212.12ZM1156.19 67.4367L1174.86 99.8293H1211.81L1230.44 67.4367L1211.81 35.0787H1174.55L1156.19 67.4367ZM1270.27 67.4367L1288.9 99.8293H1326.03L1344.7 67.4367L1326.03 35.0787H1288.76L1270.27 67.4367ZM1384.35 67.4367L1403.02 99.8293H1440.25L1458.92 67.4367L1440.25 35.0787H1403.02L1384.35 67.4367ZM1498.43 67.4367L1517.1 99.8293H1554.5L1573.13 67.4367L1554.5 35.0787H1517.23L1498.43 67.4367ZM1612.51 67.4367L1631.18 99.8293H1668.72L1687.39 67.4367L1668.72 35.0787H1631.45L1612.51 67.4367ZM1726.76 67.4367L1745.43 99.8293H1782.94L1801.61 67.4367L1782.94 35.0787H1745.78L1726.76 67.4367ZM1840.84 67.4367L1859.51 99.8293H1897.16L1915.82 67.4367L1897.16 35.0787H1859.86L1840.84 67.4367ZM1954.92 67.4367L1973.59 99.8293H2011.41L2030.04 67.4367L2011.41 35.0787H1974.14L1954.92 67.4367ZM2069.18 67.4367L2087.81 99.8293H2125.63L2144.3 67.4367L2125.63 35.0787H2088.36L2069.18 67.4367ZM2086.46 959.672L2067.83 927.279H2030.56L2011.89 959.672L2030.56 992.064H2068.45L2086.46 959.672ZM1972.38 959.672L1953.71 927.279H1916.48L1897.81 959.672L1916.48 992.064H1954.2L1972.38 959.672ZM1858.3 959.672L1839.63 927.279H1802.4L1783.73 959.672L1802.4 992.064H1839.98L1858.3 959.672ZM1744.22 959.672L1725.55 927.279H1688.29L1669.65 959.672L1688.29 992.064H1725.76L1744.22 959.672ZM1629.97 959.672L1611.33 927.279H1574.07L1555.4 959.672L1574.07 992.064H1611.54L1629.97 959.672ZM1515.89 959.672L1497.22 927.279H1459.99L1441.32 959.672L1459.99 992.064H1497.29L1515.89 959.672ZM1401.81 959.672L1383.14 927.279H1345.91L1327.24 959.672L1345.91 992.064H1383.07L1401.81 959.672ZM1287.73 959.672L1268.71 927.036H1231.45L1212.81 959.429L1231.45 991.822H1268.71L1287.73 959.672ZM1060.4 232.137H1097.73L1116.16 199.502L1097.52 167.109H1060.19L1041.52 199.502L1060.4 232.137ZM1041.73 133.642L1060.4 166.035H1097.73L1116.36 133.642L1097.73 101.25H1060.4L1041.73 133.642ZM1117.57 132.984H1154.63L1173.3 100.557L1154.63 67.8524H1117.3L1098.63 100.245L1117.57 132.984ZM1154.63 2.02782H1117.3L1098.63 34.4205L1117.3 66.7784H1154.63L1173.27 34.4205L1154.63 2.02782ZM1268.71 2.02782H1231.38L1212.78 34.3512L1231.45 66.7784H1268.92L1287.59 34.4205L1268.71 2.02782ZM1382.79 2.02782H1345.49L1326.86 34.3512L1345.56 66.7784H1383.14L1401.81 34.4205L1382.79 2.02782ZM1496.87 2.02782H1459.57L1440.94 34.3512L1459.64 66.7784H1497.36L1516.02 34.4205L1496.87 2.02782ZM1611.13 2.02782H1573.79L1555.16 34.3512L1573.86 66.7784H1611.61L1630.24 34.4205L1611.13 2.02782ZM1725.21 2.02782H1687.87L1669.27 34.3512L1687.94 66.7784H1725.83L1744.5 34.4205L1725.21 2.02782ZM1839.29 2.02782H1801.99L1783.35 34.3512L1802.05 66.7784H1840.05L1858.71 34.4205L1839.29 2.02782ZM1953.37 2.02782H1916.07L1897.43 34.3512L1916.14 66.7784H1954.27L1972.93 34.4205L1953.37 2.02782ZM2067.62 2.02782H2030.28L2011.65 34.3512L2030.35 66.7784H2068.52L2087.15 34.4205L2067.62 2.02782ZM2181.7 2.02782H2144.36L2125.77 34.3512L2144.43 66.7784H2182.74L2201.4 34.4205L2181.7 2.02782ZM2257.55 67.4367L2238.88 35.0787H2201.58L2182.91 67.4367L2201.58 99.8293H2239.91L2257.55 67.4367ZM2181.7 68.0949H2144.43L2125.77 100.557L2144.36 132.88H2182.74L2201.4 100.488L2181.7 68.0949ZM2181.7 134.197H2144.36L2125.73 166.589L2144.36 198.982H2182.74L2201.4 166.589L2181.7 134.197ZM2181.7 200.298H2144.36L2125.77 232.622L2144.43 265.049H2182.74L2201.4 232.691L2181.7 200.298ZM2257.55 265.707L2238.88 233.315H2201.58L2182.91 265.707L2201.58 298.1H2239.91L2257.55 265.707ZM2181.7 266.366H2144.43L2125.77 298.827L2145.4 331.151H2182.74L2201.4 298.758L2181.7 266.366ZM2181.7 332.467H2144.36L2125.73 364.86L2145.4 396.975H2182.74L2201.4 364.583L2181.7 332.467ZM2181.7 398.569H2144.36L2125.77 430.892L2144.43 463.32H2182.74L2201.4 430.962L2181.7 398.569ZM2258.58 463.839L2239.91 431.447H2202.61L2183.95 463.839L2202.61 496.232H2239.91L2258.58 463.839ZM2182.74 464.498H2145.47L2126.8 496.959L2145.4 529.283H2182.74L2201.4 496.89L2182.74 464.498ZM2182.74 530.599H2145.4L2126.77 562.992L2145.4 595.384H2182.74L2201.4 562.992L2182.74 530.599ZM2182.74 596.701H2145.4L2126.8 629.024L2145.47 661.452H2182.74L2201.4 629.094L2182.74 596.701ZM2258.58 662.11L2239.91 629.717H2202.61L2183.95 662.11L2202.61 694.503H2239.91L2258.58 662.11ZM2182.74 662.768H2145.47L2126.8 695.23L2145.4 727.553H2182.74L2201.4 695.161L2182.74 662.768ZM2182.74 728.87H2145.4L2126.77 761.262L2145.4 793.655H2182.74L2201.4 761.262L2182.74 728.87ZM2182.74 794.972H2145.4L2126.8 827.295L2145.47 859.722H2182.74L2201.4 827.33L2182.74 794.972ZM2258.58 860.38L2239.91 827.988H2202.61L2183.95 860.38L2202.61 892.773H2239.91L2258.58 860.38ZM2182.74 861.039H2145.47L2126.8 893.501L2145.4 925.824H2182.74L2201.4 893.431L2182.74 861.039ZM2201.4 959.533L2182.74 927.14H2145.4L2126.77 959.533L2145.4 991.926H2182.74L2201.4 959.533ZM2088.22 1024.98H2125.56L2144.23 992.584L2125.56 960.191H2088.29L2069.62 992.619L2088.22 1024.98ZM1974.14 1024.98H2011.48L2030.11 992.584L2011.48 960.191H1973.94L1955.23 992.619L1974.14 1024.98ZM1860.06 1024.98H1897.09L1915.75 992.584L1897.09 960.191H1859.86L1841.15 992.619L1860.06 1024.98ZM1745.98 1024.98H1782.87L1801.54 992.584L1782.87 960.191H1745.78L1727.07 992.619L1745.98 1024.98ZM1631.73 1024.98H1669.07L1687.73 992.584L1669.07 960.191H1631.8L1613.13 992.619L1631.73 1024.98ZM1517.65 1024.98H1554.99L1572.93 992.584L1554.29 960.191H1517.03L1498.33 992.619L1517.65 1024.98ZM1403.57 1024.98H1440.18L1458.85 992.584L1440.18 960.191H1402.95L1384.25 992.619L1403.57 1024.98ZM1289.49 1024.98H1325.96L1344.63 992.584L1325.96 960.191H1288.69L1270.03 992.619L1289.49 1024.98ZM1175.41 1024.98H1212.74L1231.38 992.584L1212.74 960.191H1175.48L1156.81 992.619L1175.41 1024.98ZM1061.33 1024.98H1098.66L1117.3 992.584L1098.66 960.191H1061.33L1042.66 992.584L1061.33 1024.98ZM1042.66 926.482L1061.33 958.875H1098.66L1117.3 926.482L1098.66 894.089H1061.33L1042.66 926.482ZM1118.51 925.824H1154.63L1173.3 893.397L1154.63 861.212H1117.3L1098.63 893.605L1118.51 925.824ZM1118.51 859.722H1154.63L1173.23 827.399L1154.56 794.972H1117.3L1098.63 827.33L1118.51 859.722ZM1060.19 826.567H1097.52L1116.16 794.175L1097.52 761.782H1060.19L1041.52 794.175L1060.19 826.567ZM1041.52 728.073L1060.19 760.466H1097.52L1116.16 728.073L1097.52 695.68H1060.19L1041.52 728.073ZM1117.37 727.415H1154.63L1173.3 694.987L1154.7 662.63H1117.37L1098.7 695.022L1117.37 727.415ZM1117.37 661.313H1154.63L1173.3 629.094L1154.63 596.666H1117.37L1098.7 629.024L1117.37 661.313ZM1060.19 628.297H1097.52L1116.16 595.904L1097.52 563.512H1060.19L1041.52 595.904L1060.19 628.297ZM1041.52 529.802L1060.19 562.195H1097.52L1116.16 529.802L1097.52 497.41H1060.19L1041.52 529.802ZM1117.37 529.144H1154.63L1173.3 496.717L1154.7 464.359H1117.37L1098.7 496.752L1117.37 529.144ZM1117.37 463.042H1154.63L1173.23 430.719L1154.56 398.292H1117.3L1098.63 430.684L1117.37 463.042ZM1060.19 430.026H1097.52L1116.16 397.634L1097.52 365.241H1060.19L1041.52 397.634L1060.19 430.026ZM1041.52 331.532L1060.19 363.924H1097.52L1116.16 331.532L1097.52 299.139H1060.19L1041.52 331.532ZM1117.37 331.151H1154.63L1173.3 298.723L1154.7 266.366H1117.37L1098.7 298.758L1117.37 331.151Z" fill="url(#paint1_radial_60_767)"/>
<rect x="1321" y="227" width="588" height="384" fill="url(#pattern0_60_767)"/>

<path d="M211.596 260.235C211.596 248.833 211.596 243.132 213.85 238.792C215.749 235.135 218.731 232.154 222.388 230.254C226.727 228 232.429 228 243.831 228H275.466C286.868 228 292.569 228 296.909 230.254C300.566 232.154 303.547 235.135 305.447 238.792C307.701 243.132 307.701 248.833 307.701 260.235V291.87C307.701 303.272 307.701 308.974 305.447 313.313C303.547 316.97 300.566 319.952 296.909 321.851C292.569 324.105 286.868 324.105 275.466 324.105H243.831C232.429 324.105 226.727 324.105 222.388 321.851C218.731 319.952 215.749 316.97 213.85 313.313C211.596 308.974 211.596 303.272 211.596 291.87V260.235Z" fill="url(#paint4_linear_60_767)"/>
<path d="M214 546.846C214 535.456 214 529.761 216.252 525.427C218.149 521.774 221.128 518.795 224.781 516.898C229.115 514.646 234.81 514.646 246.2 514.646H277.8C289.19 514.646 294.885 514.646 299.219 516.898C302.872 518.795 305.851 521.774 307.748 525.427C310 529.761 310 535.456 310 546.846V578.446C310 589.836 310 595.531 307.748 599.865C305.851 603.518 302.872 606.497 299.219 608.394C294.885 610.646 289.19 610.646 277.8 610.646H246.2C234.81 610.646 229.115 610.646 224.781 608.394C221.128 606.497 218.149 603.518 216.252 599.865C214 595.531 214 589.836 214 578.446V546.846Z" fill="url(#paint5_linear_60_767)"/>
<defs>
<pattern id="pattern0_60_767" patternContentUnits="objectBoundingBox" width="1" height="1">
<use xlink:href="#image0_60_767" transform="matrix(0.00118483 0 0 0.00181428 0 -0.000740521)"/>
</pattern>
<linearGradient id="paint0_linear_60_767" x1="365.5" y1="372.5" x2="1558.5" y2="451.5" gradientUnits="userSpaceOnUse">
<stop offset="0.274415" stop-color="#0765EC"/>
<stop offset="1" stop-color="#00398C"/>
</linearGradient>
<radialGradient id="paint1_radial_60_767" cx="0" cy="0" r="1" gradientUnits="userSpaceOnUse" gradientTransform="translate(1555.37 447.314) rotate(180) scale(540.947 542.117)">
<stop stop-color="white"/>
<stop offset="0.25" stop-color="#B9B9B9" stop-opacity="0.73"/>
<stop offset="0.62" stop-color="#575757" stop-opacity="0.34"/>
<stop offset="0.88" stop-color="#181818" stop-opacity="0.09"/>
<stop offset="1" stop-opacity="0"/>
</radialGradient>
<clipPath id="clip0_60_767">
<rect width="96.1055" height="96.1055" fill="white" transform="translate(211 371.169)"/>
</clipPath></defs>
</svg>
