<svg width="1272" height="894" viewBox="0 0 1272 894" fill="none" xmlns="http://www.w3.org/2000/svg" xmlns:xlink="http://www.w3.org/1999/xlink">
<g clip-path="url(#clip0_2_550)">
<path d="M696.388 227.053C587.484 474.628 578.455 618.453 945.217 712.624C1141.13 762.949 1228.06 836.366 1266.53 893.84H-7.99017V-31.5134H741.445C764.625 37.4838 742.154 122.978 696.388 227.053Z" fill="url(#paint0_linear_2_550)"/>
<path d="M-15.125 -31.0134V893.34H1191.31C1177.22 843.048 1118.52 742.389 877.108 680.392C710.802 637.688 629.466 583.701 602.19 512.113C588.555 476.324 588.457 436.2 597.93 391.004C607.402 345.811 626.451 295.51 651.148 239.346C701.119 125.729 720.406 36.7822 673.95 -31.0134H-15.125Z" fill="url(#paint1_linear_2_550)" stroke="black"/>
<path style="mix-blend-mode:color-dodge" opacity="0.19" d="M184.101 620.327H158.955L146.108 597.837L158.703 575.764L146.108 553.69L158.955 531.177H184.101L196.445 509.543L183.872 487.493L196.696 464.98H222.391L234.964 487.053H259.652L272.225 464.98H297.92L310.492 487.053H335.181L347.777 464.98H373.448L386.044 487.053H410.71L423.305 464.98H448.977L461.573 487.053H486.261L498.834 464.98H524.529L537.101 487.053H561.79L574.386 464.98H600.057L612.744 487.053H637.319L649.915 464.98H675.586L688.182 487.053H712.847L725.443 464.98H751.115L763.619 487.053H788.308L800.88 464.98H826.666L839.239 487.053H863.928L876.524 464.98H902.195L914.791 487.053H939.937L952.784 509.543L939.937 532.056H914.791L902.447 553.69L915.019 575.764L902.447 597.837L914.791 619.471H939.937L952.784 641.961L939.937 664.474H914.791L902.447 686.108L915.019 708.182L902.447 730.255L914.791 751.889H939.937L952.784 774.379L939.937 796.893H914.791L902.447 818.527L915.019 840.6L902.447 862.674L914.791 884.308H939.937L952.784 906.798L939.937 929.311H914.791L902.447 950.945L915.019 973.018L902.447 995.092L914.791 1016.73H939.937L952.784 1039.22L939.937 1061.73H914.791L902.447 1083.36L915.019 1105.44L902.195 1127.95H877.049L864.476 1150H838.782L826.209 1127.95H801.521L788.948 1150H763.162L750.566 1127.95H725.9L713.305 1150H687.633L675.037 1127.95H650.372L637.776 1150H612.104L599.509 1127.95H574.82L562.247 1150H536.553L523.98 1127.95H499.291L486.696 1150H461.024L448.428 1127.95H423.763L411.167 1150H385.495L372.9 1127.95H348.234L335.638 1150H309.967L297.371 1127.95H272.682L260.109 1150H234.415L221.842 1127.95H197.154L184.558 1150H158.886L146.039 1127.51L158.635 1105.44L146.039 1083.36L158.886 1060.85H184.032L196.376 1039.22L184.032 1017.58H158.886L146.039 995.092L158.635 973.018L146.039 950.945L158.886 928.432H184.032L196.376 906.798L184.032 885.164H158.886L146.039 862.674L158.635 840.6L146.039 818.527L158.886 796.013H184.032L196.376 774.379L184.032 752.746H158.886L146.039 730.255L158.635 708.182L146.039 686.108L158.886 663.595H184.032L196.376 641.961L184.101 620.327ZM197.199 641.522H221.842L234.141 619.934L221.796 598.277H197.154L184.809 619.911L197.199 641.522ZM197.199 686.548L184.855 708.182L197.199 729.816H221.842L234.164 708.182L221.842 686.548H197.199ZM197.199 818.966L184.855 840.6L197.199 862.234H221.842L234.164 840.6L221.842 818.966H197.199ZM197.199 951.384L184.855 973.018L197.199 994.652H221.842L234.164 973.018L221.842 951.384H197.199ZM197.199 1083.8L184.855 1105.44L197.199 1127.07H221.842L234.164 1105.44L221.842 1083.73L197.199 1083.8ZM259.607 1105L271.928 1083.36L259.607 1061.73H234.964L222.619 1083.36L234.964 1105H259.607ZM335.044 1105L347.388 1083.36L335.044 1061.73H310.401L298.079 1083.36L310.401 1105H335.044ZM410.481 1105L422.825 1083.36L410.481 1061.73H385.861L373.517 1083.36L385.861 1105H410.481ZM485.918 1105L498.446 1083.36L486.124 1061.73H461.481L449.137 1083.36L461.481 1105H485.918ZM561.356 1105L573.7 1083.36L561.356 1061.73H536.713L524.369 1083.36L536.713 1105H561.356ZM636.793 1105L649.137 1083.36L636.793 1061.73H612.744L600.4 1083.36L612.744 1105H636.793ZM712.23 1105L724.575 1083.36L712.23 1061.73H688.182L675.837 1083.36L688.182 1105H712.23ZM787.782 1105L800.103 1083.36L787.782 1061.73H763.619L751.275 1083.36L763.619 1105H787.782ZM863.219 1105L875.563 1083.36L863.219 1061.73H838.576L826.232 1083.36L838.576 1105H863.219ZM801.521 509.913L789.153 531.594L801.475 553.181H826.118L838.462 531.524L826.163 509.913H801.521ZM726.083 509.913L713.716 531.594L726.038 553.181H750.566L762.933 531.524L750.612 509.913H726.083ZM650.646 509.913L638.279 531.594L650.6 553.181H675.037L687.404 531.524L675.083 509.913H650.646ZM575.209 509.913L562.864 531.594L575.163 553.181H599.509L611.876 531.524L599.554 509.913H575.209ZM499.771 509.913L487.016 531.663L499.337 553.251H523.98L536.324 531.594L524.026 509.983L499.771 509.913ZM424.334 509.913L411.578 531.663L423.9 553.251H448.428L460.796 531.594L448.474 509.983L424.334 509.913ZM348.897 509.913L336.53 531.594L348.851 553.181H372.9L385.267 531.524L372.945 509.913H348.897ZM273.345 509.913L261.001 531.594L273.3 553.181H297.279L309.647 531.524L297.325 509.913H273.345ZM197.771 554.06L185.427 575.694L197.771 597.328H221.842L234.164 575.694L221.842 554.06H197.771ZM297.279 1082.92L309.647 1061.27L297.325 1039.66H272.682L260.338 1061.34L272.637 1082.92H297.279ZM372.717 1082.92L385.084 1061.27L372.945 1039.77H348.325L335.958 1061.45L348.28 1083.04L372.717 1082.92ZM448.154 1082.92L460.521 1061.27L448.2 1039.66H423.58L411.213 1061.34L423.534 1082.92H448.154ZM523.591 1082.92L535.936 1061.27L523.637 1039.66H498.994L486.627 1061.34L498.948 1082.92H523.591ZM599.029 1082.92L611.396 1061.27L599.074 1039.66H574.431L562.087 1061.34L574.386 1082.92H599.029ZM674.466 1082.92L686.833 1061.27L674.512 1039.66H650.463L638.096 1061.34L650.417 1082.92H674.466ZM749.903 1082.92L762.27 1061.27L749.949 1039.66H725.329L712.962 1061.34L725.283 1082.92H749.903ZM825.455 1082.92L837.799 1061.27L825.501 1039.66H800.858L788.491 1061.34L800.812 1082.92H825.455ZM800.812 554.13L788.468 575.764L800.812 597.398H826.118L838.439 575.764L826.118 554.13H800.812ZM725.375 554.13L713.03 575.764L725.375 597.398H750.566L762.91 575.764L750.566 554.13H725.375ZM649.937 554.13L637.593 575.764L649.937 597.398H675.037L687.382 575.764L675.037 554.13H649.937ZM574.386 554.13L562.064 575.764L574.386 597.398H599.509L611.853 575.764L599.509 554.13H574.386ZM498.948 554.13L486.604 575.764L498.948 597.398H523.98L536.301 575.764L523.98 554.13H498.948ZM423.511 554.13L411.167 575.764L423.511 597.398H448.428L460.773 575.764L448.428 554.13H423.511ZM348.074 554.13L335.73 575.764L348.074 597.398H372.9L385.244 575.764L372.9 554.13H348.074ZM272.637 554.13L260.315 575.764L272.637 597.398H297.279L309.624 575.764L297.279 554.13H272.637ZM259.607 1016.63L271.928 994.999L259.607 973.365H234.964L222.619 994.999L234.964 1016.63H259.607ZM297.417 1038.68L309.738 1017.1L297.371 995.439H272.728L260.429 1017.03L272.774 1038.68H297.417ZM372.854 1038.68L385.175 1017.1L372.808 995.439H348.188L335.867 1017.03L348.234 1038.68H372.854ZM448.291 1038.68L460.613 1017.1L448.245 995.439H423.626L411.304 1017.03L423.671 1038.68H448.291ZM523.843 1038.68L536.141 1017.1L523.797 995.439H499.154L486.833 1017.03L499.2 1038.68H523.843ZM599.28 1038.68L611.601 1017.1L599.234 995.439H574.592L562.293 1017.03L574.637 1038.68H599.28ZM674.717 1038.68L687.039 1017.1L674.672 995.439H650.052L637.73 1017.03L650.097 1038.68H674.717ZM750.155 1038.68L762.476 1017.1L750.109 995.439H725.489L713.168 1017.03L725.535 1038.68H750.155ZM825.706 1038.68L838.005 1017.1L825.661 995.439H801.018L788.696 1017.03L801.063 1038.68H825.706ZM863.882 1016.63L876.226 994.999L863.882 973.365H839.239L826.895 994.999L839.239 1016.63H863.882ZM839.239 576.111L826.895 597.745L839.239 619.379H863.882L876.226 597.745L863.882 576.111H839.239ZM801.475 598.184L789.153 619.772L801.521 641.429H826.163L838.462 619.841L826.118 598.184H801.475ZM763.619 576.203L751.275 597.837L763.619 619.471H788.353L800.675 597.837L788.353 576.203H763.619ZM725.855 598.277L713.533 619.865L725.9 641.522H750.612L762.933 619.934L750.566 598.277H725.855ZM688.182 576.203L675.837 597.837L688.182 619.471H712.802L725.146 597.837L712.802 576.203H688.182ZM650.417 598.277L638.096 619.865L650.463 641.522H675.083L687.404 619.934L675.037 598.277H650.417ZM612.744 576.203L600.4 597.837L612.744 619.471H637.273L649.617 597.837L637.273 576.203H612.744ZM574.957 598.277L562.659 619.865L575.003 641.522H599.554L611.876 619.934L599.509 598.277H574.957ZM537.193 576.203L524.849 597.837L537.193 619.471H561.744L574.089 597.837L561.744 576.203H537.193ZM499.429 598.277L487.107 619.865L499.474 641.522H524.026L536.324 619.934L523.98 598.277H499.429ZM461.664 576.203L449.32 597.837L461.664 619.471H486.216L498.446 597.837L486.124 576.203H461.664ZM423.9 598.277L411.578 619.865L423.945 641.522H448.474L460.796 619.934L448.428 598.277H423.9ZM386.135 576.203L373.791 597.837L386.135 619.471H410.664L423.008 597.837L410.664 576.203H386.135ZM348.371 598.277L336.05 619.865L348.417 641.522H372.945L385.267 619.934L372.9 598.277H348.371ZM310.584 576.203L298.262 597.837L310.584 619.471H335.135L347.571 597.837L335.227 576.203H310.584ZM272.819 598.277L260.521 619.865L272.865 641.522H297.417L309.738 619.934L297.371 598.277H272.819ZM235.055 576.203L222.711 597.837L235.055 619.471H259.607L271.928 597.837L259.607 576.203H235.055ZM297.279 994.652L309.624 973.018L297.279 951.384H272.637L260.315 973.018L272.637 994.652H297.279ZM335.135 972.671L347.48 951.037L335.135 929.403H310.492L298.171 951.037L310.492 972.671H335.135ZM372.9 994.745L385.244 973.111L372.9 951.477H348.28L335.935 973.111L348.28 994.745H372.9ZM410.664 972.671L423.008 951.037L410.664 929.403H386.044L373.7 951.037L386.044 972.671H410.664ZM448.428 994.745L460.773 973.111L448.428 951.477H423.808L411.464 973.111L423.808 994.745H448.428ZM486.216 972.671L498.446 950.945L486.124 929.311H461.481L449.137 950.945L461.481 972.579L486.216 972.671ZM523.98 994.745L536.301 973.111L523.98 951.477H499.337L486.993 973.111L499.337 994.745H523.98ZM561.744 972.671L574.089 951.037L561.744 929.403H537.101L524.757 951.037L537.101 972.671H561.744ZM599.509 994.745L611.853 973.111L599.509 951.477H574.866L562.544 973.111L574.866 994.745H599.509ZM637.273 972.671L649.617 951.037L637.273 929.403H612.744L600.4 951.037L612.744 972.671H637.273ZM675.037 994.745L687.382 973.111L675.037 951.477H650.417L638.073 973.111L650.417 994.745H675.037ZM712.802 972.671L725.146 951.037L712.802 929.403H688.182L675.837 951.037L688.182 972.671H712.802ZM750.566 994.745L762.91 973.111L750.566 951.477H725.946L713.602 973.111L725.946 994.745H750.566ZM788.353 972.671L800.675 951.037L788.353 929.403H763.619L751.275 951.037L763.619 972.671H788.353ZM826.118 994.745L838.439 973.111L826.118 951.477H801.475L789.131 973.111L801.475 994.745H826.118ZM801.521 642.493L789.153 664.174L801.475 685.761H826.118L838.462 664.104L826.163 642.493H801.521ZM726.083 642.493L713.716 664.174L725.946 685.761H750.566L762.933 664.104L750.612 642.493H726.083ZM650.646 642.493L638.279 664.174L650.417 685.761H675.037L687.404 664.104L675.083 642.493H650.646ZM575.209 642.493L562.864 664.174L574.866 685.761H599.509L611.876 664.104L599.554 642.493H575.209ZM499.771 642.493L487.404 664.174L499.337 685.761H523.98L536.324 664.104L524.026 642.493H499.771ZM424.334 642.493L411.967 664.174L423.808 685.761H448.428L460.796 664.104L448.474 642.493H424.334ZM348.897 642.493L336.53 664.174L348.28 685.761H372.9L385.267 664.104L372.945 642.493H348.897ZM273.345 642.493L261.001 664.174L272.728 685.761H297.279L309.647 664.104L297.325 642.493H273.345ZM273.345 950.598H297.279L309.647 928.941L297.325 907.33H272.682L260.338 929.01L273.345 950.598ZM373.517 950.598L385.884 928.941L373.563 907.33H348.943L336.575 929.01L348.897 950.598H373.517ZM448.954 950.598L461.321 928.941L449 907.33H424.38L412.013 929.01L424.334 950.598H448.954ZM524.391 950.598L536.736 928.941L524.437 907.33H499.794L487.427 929.01L499.749 950.598H524.391ZM599.829 950.598L612.196 928.941L599.874 907.33H575.232L562.887 929.01L575.186 950.598H599.829ZM675.266 950.598L687.633 928.941L675.312 907.33H650.463L638.096 929.01L650.417 950.598H675.266ZM750.703 950.598L763.07 928.941L750.749 907.33H726.129L713.762 929.01L726.083 950.598H750.703ZM826.255 950.598L838.599 928.941L826.301 907.33H801.658L789.291 929.01L801.612 950.598H826.255ZM801.612 686.641L789.268 708.274L801.612 729.908H826.118L838.439 708.274L826.118 686.641H801.612ZM726.175 686.641L713.83 708.274L726.175 729.908H750.566L762.91 708.274L750.566 686.641H726.175ZM650.737 686.641L638.393 708.274L650.737 729.908H675.037L687.382 708.274L675.037 686.641H650.737ZM575.186 686.641L562.864 708.274L574.866 729.723H599.509L611.853 708.089L599.509 686.455L575.186 686.641ZM499.749 686.641L487.404 708.274L499.749 729.908H523.98L536.301 708.274L523.98 686.641H499.749ZM424.311 686.641L411.967 708.274L424.311 729.908H448.428L460.773 708.274L448.428 686.641H424.311ZM348.874 686.641L336.53 708.274L348.874 729.908H372.9L385.244 708.274L372.9 686.641H348.874ZM273.437 686.641L261.115 708.274L272.728 729.723H297.279L309.624 708.089L297.279 686.455L273.437 686.641ZM273.437 819.059L261.115 840.693L273.437 862.327H297.279L309.624 840.693L297.279 819.059H273.437ZM372.945 906.358L385.267 884.747L372.9 863.09H348.28L335.958 884.678L348.325 906.335L372.945 906.358ZM448.383 906.358L460.796 884.747L448.428 863.09H423.808L411.578 884.747L423.945 906.404L448.383 906.358ZM523.934 906.358L536.324 884.747L523.98 863.09H499.337L487.016 884.747L499.383 906.404L523.934 906.358ZM599.372 906.358L611.876 884.747L599.509 863.09H574.866L562.453 884.747L574.797 906.404L599.372 906.358ZM674.809 906.358L687.404 884.747L675.037 863.09H650.417L638.096 884.678L650.463 906.335L674.809 906.358ZM750.246 906.358L762.933 884.747L750.566 863.09H725.946L713.625 884.678L725.992 906.335L750.246 906.358ZM825.683 862.234L838.005 840.6L825.683 818.966H801.041L788.696 840.6L801.041 862.234H825.683ZM763.619 708.622L751.275 730.255L763.619 751.889H788.353L800.675 730.255L788.353 708.622H763.619ZM725.855 730.695L713.533 752.283L725.9 773.94H750.612L762.933 752.352L750.566 730.695H725.855ZM688.182 708.622L675.837 730.255L688.182 751.889H712.802L725.146 730.255L712.802 708.622H688.182ZM650.417 730.695L638.096 752.283L650.463 773.94H675.083L687.404 752.352L675.037 730.695H650.417ZM612.744 708.622L600.4 730.255L612.744 751.889H637.273L649.617 730.255L637.273 708.622H612.744ZM574.957 730.695L562.659 752.283L575.003 773.94H599.554L611.876 752.352L599.509 730.695H574.957ZM537.193 708.622L524.849 730.255L537.193 751.889H561.744L574.089 730.255L561.744 708.622H537.193ZM499.429 730.695L487.107 752.283L499.474 773.94H524.026L536.324 752.352L523.98 730.695H499.429ZM461.664 708.622L449.32 730.255L461.664 751.889H486.216L498.446 730.255L486.124 708.622H461.664ZM423.9 730.695L411.578 752.283L423.945 773.94H448.474L460.796 752.352L448.428 730.695H423.9ZM386.135 708.622L373.791 730.255L386.135 751.889H410.664L423.008 730.255L410.664 708.622H386.135ZM348.371 730.695L336.05 752.283L348.417 773.94H372.945L385.267 752.352L372.9 730.695H348.371ZM310.584 708.622L298.262 730.255L310.584 751.889H335.135L347.48 730.255L335.135 708.622H310.584ZM335.227 840.161L347.571 818.527L335.227 796.893H310.584L298.262 818.527L310.584 840.161H335.227ZM372.991 862.234L385.335 840.6L372.991 818.966H348.371L336.027 840.6L348.371 862.234H372.991ZM410.755 840.161L423.1 818.527L410.755 796.893H386.135L373.791 818.527L386.135 840.161H410.755ZM448.52 862.234L460.864 840.6L448.52 818.966H423.9L411.555 840.6L423.9 862.234H448.52ZM486.307 840.161L498.446 818.527L486.124 796.893H461.481L449.137 818.527L461.481 840.161H486.307ZM524.071 862.234L536.393 840.6L524.071 818.966H499.429L487.084 840.6L499.429 862.234H524.071ZM561.836 840.161L574.18 818.527L561.836 796.893H537.193L524.849 818.527L537.193 840.161H561.836ZM599.6 862.234L611.944 840.6L599.6 818.966H574.957L562.636 840.6L574.957 862.234H599.6ZM637.365 840.161L649.709 818.527L637.365 796.893H612.744L600.4 818.527L612.744 840.161H637.365ZM675.129 862.234L687.473 840.6L675.129 818.966H650.509L638.165 840.6L650.509 862.234H675.129ZM712.893 840.161L725.238 818.527L712.893 796.893H688.182L675.837 818.527L688.182 840.161H712.893ZM750.658 862.234L763.002 840.6L750.658 818.966H726.038L713.693 840.6L726.038 862.234H750.658ZM788.445 840.161L800.766 818.527L788.445 796.893H763.619L751.275 818.527L763.619 840.161H788.445ZM726.083 774.819L713.716 796.499L726.038 818.087H750.566L762.933 796.43L750.612 774.819H726.083ZM650.646 774.819L638.279 796.499L650.6 818.087H675.037L687.404 796.43L675.083 774.819H650.646ZM575.209 774.819L562.864 796.499L575.163 818.087H599.509L611.876 796.43L599.554 774.819H575.209ZM499.771 774.819L487.404 796.499L499.726 818.087H523.98L536.324 796.43L524.026 774.819H499.771ZM424.334 774.819L411.967 796.499L424.288 818.087H448.428L460.796 796.43L448.474 774.819H424.334ZM348.897 774.819L336.53 796.499L348.851 818.087H372.9L385.267 796.43L372.945 774.819H348.897ZM310.538 752.861L298.217 774.495L310.538 796.129H335.181L347.571 774.379L335.227 752.746L310.538 752.861ZM386.09 752.861L373.745 774.495L386.09 796.129H410.71L423.008 774.379L410.664 752.746L386.09 752.861ZM461.527 752.861L449.183 774.495L461.527 796.129H486.261L498.583 774.495L486.261 752.861H461.527ZM536.964 752.861L524.62 774.495L536.964 796.129H561.79L574.134 774.495L561.79 752.861H536.964ZM612.744 752.861L600.4 774.495L612.744 796.129H637.319L649.663 774.495L637.319 752.861H612.744ZM688.182 752.861L675.837 774.495L688.182 796.129H712.847L725.192 774.495L712.847 752.861H688.182ZM763.619 752.861L751.275 774.495L763.619 796.129H788.399L800.72 774.495L788.399 752.861H763.619ZM788.216 884.423L800.538 862.789L788.216 841.155H763.619L751.275 862.789L763.619 884.423H788.216ZM712.665 884.423L725.009 862.789L712.665 841.155H688.182L675.837 862.789L688.182 884.423H712.665ZM637.227 884.423L649.572 862.789L637.227 841.155H612.744L600.4 862.789L612.744 884.423H637.227ZM561.79 884.423L574.134 862.789L561.79 841.155H537.147L524.803 862.789L537.147 884.423H561.79ZM486.353 884.423L498.446 862.674L486.124 841.04H461.481L449.137 862.674L461.481 884.308L486.353 884.423ZM410.915 884.423L423.26 862.789L410.915 841.155H386.295L373.951 862.789L386.295 884.423H410.915ZM335.478 884.423L347.822 862.789L335.478 841.155H310.835L298.514 862.789L310.835 884.423H335.478ZM310.835 664.613L298.514 686.247L310.835 707.881H335.135L347.48 686.247L335.135 664.613H310.835ZM386.387 664.613L374.043 686.247L386.387 707.881H410.664L423.008 686.247L410.664 664.613H386.387ZM461.824 664.613L449.48 686.247L461.824 707.881H486.216L498.446 686.108L486.124 664.474L461.824 664.613ZM537.261 664.613L524.917 686.247L537.261 707.881H561.744L574.089 686.247L561.744 664.613H537.261ZM612.813 664.613L600.469 686.247L612.744 707.742H637.273L649.617 686.108L637.273 664.474L612.813 664.613ZM688.25 664.613L675.906 686.247L688.182 707.742H712.802L725.146 686.108L712.802 664.474L688.25 664.613ZM763.688 664.613L751.343 686.247L763.619 707.742H788.353L800.675 686.108L788.353 664.474L763.688 664.613ZM826.095 730.834H801.452L789.131 752.422L801.498 774.079H826.163L838.462 752.491L826.095 730.834ZM826.095 774.958H801.452L789.085 796.638L801.406 818.226H826.118L838.462 796.569L826.095 774.958ZM826.095 863.252H801.452L789.131 884.84L801.498 906.497H826.163L838.462 884.747L826.095 863.252ZM788.376 928.57L800.698 906.936L788.376 885.303H763.733L751.389 906.936L763.733 928.57H788.376ZM712.825 928.57L725.169 906.936L712.825 885.303H688.182L675.837 906.936L688.182 928.57H712.825ZM637.387 928.57L649.732 906.936L637.387 885.303H612.744L600.4 906.936L612.744 928.57H637.387ZM561.95 928.57L574.294 906.936L561.95 885.303H537.307L524.963 906.936L537.307 928.57H561.95ZM486.513 928.57L498.834 906.936L486.513 885.303H461.87L449.526 906.936L461.87 928.57H486.513ZM411.076 928.57L423.42 906.936L411.076 885.303H386.455L374.111 906.936L386.455 928.57H411.076ZM335.638 928.57L347.982 906.936L335.638 885.303H310.538L298.217 906.936L310.538 928.57H335.638ZM273.231 906.497H297.417L309.738 884.747L297.371 863.09H272.728L260.429 884.678L273.231 906.497ZM273.231 818.226H297.279L309.647 796.569L297.325 774.958H272.682L260.338 796.638L273.231 818.226ZM273.231 774.079H297.417L309.738 752.491L297.371 730.834H272.728L260.429 752.422L273.231 774.079ZM310.538 620.327L298.217 641.961L310.538 663.595H335.181L347.525 641.961L335.181 620.327H310.538ZM386.09 620.327L373.745 641.961L386.09 663.595H410.71L423.054 641.961L410.71 620.327H386.09ZM461.527 620.327L449.183 641.961L461.527 663.595H486.261L498.583 641.961L486.261 620.327H461.527ZM536.964 620.327L524.62 641.961L536.964 663.595H561.79L574.134 641.961L561.79 620.327H536.964ZM612.516 620.327L600.172 641.961L612.516 663.595H637.319L649.663 641.961L637.319 620.327H612.516ZM687.953 620.327L675.609 641.961L687.953 663.595H712.847L725.192 641.961L712.847 620.327H687.953ZM763.391 620.327L751.046 641.961L763.391 663.595H788.399L800.72 641.961L788.399 620.327H763.391ZM838.828 620.327L826.506 641.961L838.828 663.595H863.928L876.272 641.961L863.928 620.327H838.828ZM838.828 664.474L826.483 686.108L838.828 707.742H863.882L876.226 686.108L863.882 664.474H838.828ZM838.828 708.622L826.483 730.255L838.828 751.889H863.882L876.226 730.255L863.882 708.622H838.828ZM838.828 752.746L826.506 774.379L838.828 796.013H863.928L876.272 774.379L863.928 752.746H838.828ZM838.828 796.893L826.483 818.527L838.828 840.161H863.882L876.226 818.527L863.882 796.893H838.828ZM838.828 841.04L826.483 862.674L838.828 884.308H863.882L876.226 862.674L863.882 841.04H838.828ZM838.828 885.164L826.506 906.798L838.828 928.432H863.928L876.272 906.798L863.928 885.164H838.828ZM838.828 929.311L826.483 950.945L838.828 972.579H863.882L876.226 950.945L863.882 929.311H838.828ZM788.353 1016.63L800.675 994.999L788.353 973.365H763.619L751.275 994.999L763.619 1016.63H788.353ZM712.802 1016.63L725.146 994.999L712.802 973.365H688.182L675.837 994.999L688.182 1016.63H712.802ZM637.365 1016.63L649.709 994.999L637.365 973.365H612.744L600.4 994.999L612.744 1016.63H637.365ZM561.927 1016.63L574.271 994.999L561.927 973.365H537.284L524.94 994.999L537.284 1016.63H561.927ZM486.49 1016.63L498.446 995.092L486.124 973.458H461.481L449.137 995.092L461.481 1016.73L486.49 1016.63ZM411.053 1016.63L423.397 994.999L411.053 973.365H386.433L374.088 994.999L386.433 1016.63H411.053ZM335.615 1016.63L347.96 994.999L335.615 973.365H310.972L298.651 994.999L310.492 1016.63H335.615ZM234.964 972.671H259.607L271.928 951.037L259.607 929.403H234.964L222.619 951.037L234.964 972.671ZM259.652 928.524L271.974 906.89L259.652 885.256H235.009L222.665 906.89L235.009 928.524H259.652ZM259.652 884.4L271.974 862.766L259.652 841.132H235.009L222.665 862.766L235.009 884.4H259.652ZM235.009 840.253H259.607L271.928 818.619L259.607 796.985H234.964L222.619 818.619L235.009 840.253ZM259.698 796.106L272.019 774.472L259.698 752.838H235.055L222.711 774.472L235.055 796.106H259.698ZM259.698 751.982L272.019 730.348L259.698 708.714H235.055L222.711 730.348L235.055 751.982H259.698ZM235.055 707.835H259.607L271.928 686.201L259.607 664.567H234.964L222.619 686.201L235.055 707.835ZM259.744 663.688L272.065 642.054L259.744 620.42H235.101L222.757 642.054L235.101 663.688H259.744ZM235.055 532.149L222.711 553.783L235.055 575.417H259.607L271.928 553.783L259.607 532.149H235.055ZM310.492 532.149L298.171 553.783L310.492 575.417H335.135L347.48 553.783L335.135 532.149H310.492ZM386.044 532.149L373.7 553.783L386.044 575.417H410.664L423.008 553.783L410.664 532.149H386.044ZM461.481 532.149L449.137 553.783L461.481 575.417H486.216L498.446 553.69L486.124 532.056L461.481 532.149ZM536.919 532.149L524.574 553.783L536.919 575.417H561.744L574.089 553.783L561.744 532.149H536.919ZM612.47 532.149L600.126 553.783L612.47 575.417H637.273L649.617 553.783L637.273 532.149H612.47ZM687.907 532.149L675.563 553.783L687.907 575.417H712.802L725.146 553.783L712.802 532.149H687.907ZM763.345 532.149L751 553.783L763.345 575.417H788.353L800.675 553.783L788.353 532.149H763.345ZM838.782 532.149L826.438 553.783L838.782 575.417H863.882L876.226 553.783L863.882 532.149H838.782ZM863.471 1060.94L875.815 1039.31L863.471 1017.67H839.285L826.964 1039.31L839.285 1060.94H863.471ZM788.033 1060.94L800.355 1039.31L788.033 1017.67H763.391L751.046 1039.31L763.391 1060.94H788.033ZM712.482 1060.94L724.826 1039.31L712.482 1017.67H688.182L675.837 1039.31L688.182 1060.94H712.482ZM637.044 1060.94L649.389 1039.31L637.044 1017.67H612.744L600.4 1039.31L612.744 1060.94H637.044ZM561.607 1060.94L573.951 1039.31L561.607 1017.67H536.964L524.62 1039.31L536.964 1060.94H561.607ZM486.17 1060.94L498.491 1039.31L486.17 1017.67H461.527L449.183 1039.31L461.527 1060.94H486.17ZM410.733 1060.94L423.077 1039.31L410.733 1017.67H386.113L373.768 1039.31L386.113 1060.94H410.733ZM335.295 1060.94L347.64 1039.31L335.295 1017.67H310.538L298.217 1039.31L310.538 1060.94H335.295ZM259.858 1060.94L272.179 1039.31L259.858 1017.67H235.215L222.871 1039.31L235.215 1060.94H259.858ZM222.871 509.636L235.215 531.27H259.652L271.974 509.636L259.652 488.025H235.009L222.871 509.636ZM298.308 509.636L310.63 531.27H335.181L347.525 509.636L335.181 488.025H310.538L298.308 509.636ZM373.745 509.636L386.09 531.27H410.71L423.054 509.636L410.71 488.025H386.09L373.745 509.636ZM449.183 509.636L461.527 531.27H486.261L498.583 509.636L486.261 488.025H461.618L449.183 509.636ZM524.62 509.636L536.964 531.27H561.79L574.134 509.636L561.79 488.025H537.147L524.62 509.636ZM600.172 509.636L612.516 531.27H637.319L649.663 509.636L637.319 488.025H612.744L600.172 509.636ZM675.609 509.636L687.953 531.27H712.847L725.192 509.636L712.847 488.025H688.182L675.609 509.636ZM751.046 509.636L763.391 531.27H788.399L800.72 509.636L788.399 488.025H763.756L751.046 509.636ZM826.598 509.636L838.919 531.27H863.928L876.272 509.636L863.928 488.025H839.285L826.598 509.636ZM838.028 1105.53L825.706 1083.9H801.063L788.719 1105.53L801.063 1127.16H826.118L838.028 1105.53ZM762.59 1105.53L750.246 1083.9H725.626L713.282 1105.53L725.626 1127.16H750.566L762.59 1105.53ZM687.153 1105.53L674.809 1083.9H650.189L637.844 1105.53L650.189 1127.16H675.037L687.153 1105.53ZM611.716 1105.53L599.372 1083.9H574.729L562.407 1105.53L574.729 1127.16H599.509L611.716 1105.53ZM536.164 1105.53L523.843 1083.9H499.2L486.856 1105.53L499.2 1127.16H523.98L536.164 1105.53ZM460.727 1105.53L448.383 1083.9H423.763L411.418 1105.53L423.763 1127.16H448.428L460.727 1105.53ZM385.29 1105.53L372.945 1083.9H348.325L335.981 1105.53L348.325 1127.16H372.9L385.29 1105.53ZM309.852 1105.53L297.279 1083.73H272.637L260.315 1105.37L272.637 1127H297.279L309.852 1105.53ZM159.526 619.633H184.215L196.399 597.837L184.078 576.203H159.389L147.045 597.837L159.526 619.633ZM147.182 553.852L159.526 575.486H184.215L196.536 553.852L184.215 532.218H159.526L147.182 553.852ZM197.337 553.413H221.842L234.186 531.756L221.842 509.913H197.154L184.809 531.547L197.337 553.413ZM221.842 465.951H197.154L184.809 487.585L197.154 509.196H221.842L234.164 487.585L221.842 465.951ZM297.279 465.951H272.591L260.292 487.539L272.637 509.196H297.417L309.761 487.585L297.279 465.951ZM372.717 465.951H348.051L335.73 487.539L348.097 509.196H372.945L385.29 487.585L372.717 465.951ZM448.154 465.951H423.488L411.167 487.539L423.534 509.196H448.474L460.818 487.585L448.154 465.951ZM523.706 465.951H499.017L486.696 487.539L499.063 509.196H524.026L536.347 487.585L523.706 465.951ZM599.143 465.951H574.454L562.156 487.539L574.5 509.196H599.554L611.899 487.585L599.143 465.951ZM674.58 465.951H649.915L637.593 487.539L649.96 509.196H675.083L687.427 487.585L674.58 465.951ZM750.017 465.951H725.352L713.03 487.539L725.398 509.196H750.612L762.956 487.585L750.017 465.951ZM825.569 465.951H800.88L788.559 487.539L800.926 509.196H826.163L838.485 487.585L825.569 465.951ZM901.006 465.951H876.318L864.019 487.539L876.364 509.196H901.692L914.036 487.585L901.006 465.951ZM951.161 509.636L938.817 488.025H914.151L901.807 509.636L914.151 531.27H939.502L951.161 509.636ZM901.006 510.075H876.364L864.019 531.756L876.318 553.343H901.692L914.036 531.709L901.006 510.075ZM901.006 554.222H876.318L863.996 575.856L876.318 597.49H901.692L914.036 575.856L901.006 554.222ZM901.006 598.369H876.318L864.019 619.957L876.364 641.614H901.692L914.036 620.003L901.006 598.369ZM951.161 642.054L938.817 620.42H914.151L901.807 642.054L914.151 663.688H939.502L951.161 642.054ZM901.006 642.493H876.364L864.019 664.174L877.004 685.761H901.692L914.036 664.127L901.006 642.493ZM901.006 686.641H876.318L863.996 708.274L877.004 729.723H901.692L914.036 708.089L901.006 686.641ZM901.006 730.788H876.318L864.019 752.375L876.364 774.032H901.692L914.036 752.422L901.006 730.788ZM951.847 774.379L939.502 752.746H914.837L902.492 774.379L914.837 796.013H939.502L951.847 774.379ZM901.692 774.819H877.049L864.705 796.499L877.004 818.087H901.692L914.036 796.453L901.692 774.819ZM901.692 818.966H877.004L864.682 840.6L877.004 862.234H901.692L914.036 840.6L901.692 818.966ZM901.692 863.113H877.004L864.705 884.701L877.049 906.358H901.692L914.036 884.747L901.692 863.113ZM951.847 906.798L939.502 885.164H914.837L902.492 906.798L914.837 928.432H939.502L951.847 906.798ZM901.692 907.237H877.049L864.705 928.917L877.004 950.505H901.692L914.036 928.871L901.692 907.237ZM901.692 951.384H877.004L864.682 973.018L877.004 994.652H901.692L914.036 973.018L901.692 951.384ZM901.692 995.531H877.004L864.705 1017.12L877.049 1038.78H901.692L914.036 1017.14L901.692 995.531ZM951.847 1039.22L939.502 1017.58H914.837L902.492 1039.22L914.837 1060.85H939.502L951.847 1039.22ZM901.692 1039.66H877.049L864.705 1061.34L877.004 1082.92H901.692L914.036 1061.29L901.692 1039.66ZM914.036 1105.44L901.692 1083.8H877.004L864.682 1105.44L877.004 1127.07H901.692L914.036 1105.44ZM839.194 1149.14H863.882L876.226 1127.51L863.882 1105.88H839.239L826.895 1127.53L839.194 1149.14ZM763.756 1149.14H788.445L800.766 1127.51L788.445 1105.88H763.619L751.252 1127.53L763.756 1149.14ZM688.319 1149.14H712.802L725.146 1127.51L712.802 1105.88H688.182L675.815 1127.53L688.319 1149.14ZM612.882 1149.14H637.273L649.617 1127.51L637.273 1105.88H612.744L600.377 1127.53L612.882 1149.14ZM537.33 1149.14H562.019L574.363 1127.51L562.019 1105.88H537.376L525.032 1127.53L537.33 1149.14ZM461.893 1149.14H486.581L498.446 1127.51L486.124 1105.88H461.481L449.114 1127.53L461.893 1149.14ZM386.455 1149.14H410.664L423.008 1127.51L410.664 1105.88H386.044L373.677 1127.53L386.455 1149.14ZM311.018 1149.14H335.135L347.48 1127.51L335.135 1105.88H310.492L298.148 1127.53L311.018 1149.14ZM235.581 1149.14H260.269L272.591 1127.51L260.269 1105.88H235.627L223.282 1127.53L235.581 1149.14ZM160.144 1149.14H184.832L197.154 1127.51L184.832 1105.88H160.144L147.799 1127.51L160.144 1149.14ZM147.799 1083.36L160.144 1105H184.832L197.154 1083.36L184.832 1061.73H160.144L147.799 1083.36ZM197.954 1082.92H221.842L234.186 1061.27L221.842 1039.77H197.154L184.809 1061.41L197.954 1082.92ZM197.954 1038.78H221.842L234.141 1017.19L221.796 995.531H197.154L184.809 1017.14L197.954 1038.78ZM159.389 1016.63H184.078L196.399 994.999L184.078 973.365H159.389L147.045 994.999L159.389 1016.63ZM147.045 950.852L159.389 972.486H184.078L196.399 950.852L184.078 929.218H159.389L147.045 950.852ZM197.199 950.413H221.842L234.186 928.755L221.888 907.145H197.199L184.855 928.779L197.199 950.413ZM197.199 906.265H221.842L234.186 884.747L221.842 863.09H197.199L184.855 884.701L197.199 906.265ZM159.389 884.215H184.078L196.399 862.581L184.078 840.947H159.389L147.045 862.581L159.389 884.215ZM147.045 818.434L159.389 840.068H184.078L196.399 818.434L184.078 796.8H159.389L147.045 818.434ZM197.199 817.994H221.842L234.186 796.337L221.888 774.727H197.199L184.855 796.36L197.199 817.994ZM197.199 773.847H221.842L234.141 752.26L221.796 730.603H197.154L184.809 752.236L197.199 773.847ZM159.389 751.797H184.078L196.399 730.163L184.078 708.529H159.389L147.045 730.163L159.389 751.797ZM147.045 686.016L159.389 707.65H184.078L196.399 686.016L184.078 664.382H159.389L147.045 686.016ZM197.199 685.761H221.842L234.186 664.104L221.888 642.493H197.199L184.855 664.127L197.199 685.761Z" fill="url(#paint2_radial_2_550)"/>
<path style="mix-blend-mode:color-dodge" opacity="0.25" d="M-72.0891 70.6867H-93.4401L-104.321 51.6442L-93.623 32.9719L-104.276 14.2997L-93.3944 -4.76598H-72.0433L-61.6193 -23.068L-72.2719 -41.7403L-61.3907 -60.806H-39.6739L-29.0212 -42.1105H-8.12733L2.38812 -60.806H24.1278L34.7804 -42.1105H55.6743L66.3955 -60.806H88.1123L98.7649 -42.1105H119.659L130.403 -60.806H152.143L162.795 -42.1105H183.689L194.342 -60.806H216.058L226.734 -42.1105H247.605L258.258 -60.806H279.997L290.65 -42.1105H311.544L322.197 -60.806H343.936L354.429 -42.1105H375.3L385.952 -60.806H407.692L418.436 -42.1105H439.33L449.983 -60.806H471.722L482.444 -42.1105H503.246L513.922 -60.806H535.638L546.291 -42.1105H567.642L578.455 -23.068L567.573 -4.02557H546.222L535.776 14.2997L546.451 32.9719L535.776 51.6442L546.222 69.9463H567.573L578.455 89.0119L567.573 108.054H546.222L535.776 126.356L546.451 145.029L535.776 163.724L546.222 182.026H567.573L578.455 201.069L567.573 220.134H546.222L535.776 238.436L546.451 257.109L535.776 275.781L546.222 294.106H567.573L578.455 313.241L567.573 332.284H546.222L535.776 350.586L546.451 369.189L535.776 387.861L546.222 406.163H567.573L578.455 425.229L567.573 444.271H546.222L535.776 462.573L546.451 481.246L535.57 500.311H514.219L503.566 518.983H481.849L471.197 500.311H450.44L439.787 518.983H418.048L407.395 500.311H386.433L375.78 518.983H354.063L343.387 500.311H322.425L311.773 518.983H290.033L279.38 500.311H258.486L247.834 518.983H226.094L215.441 500.311H194.57L183.918 518.983H162.178L151.525 500.311H130.631L119.979 518.983H98.3992L87.7466 500.311H66.8756L56.2 518.983H34.3918L23.7392 500.311H2.84534L-7.8074 518.983H-29.6156L-40.2682 500.311H-61.1621L-71.8148 518.983H-93.5316L-104.413 499.941L-93.7601 481.246L-104.413 462.573L-93.5316 443.531H-72.1805L-61.6193 425.229L-72.0433 406.903H-93.3944L-104.276 387.861L-93.623 369.189L-104.276 350.493L-93.3944 331.451H-72.0433L-61.6193 313.241L-72.0433 294.939H-93.3944L-104.276 275.874L-93.623 257.109L-104.276 238.436L-93.3944 219.394H-72.0433L-61.6193 201.069L-72.0433 182.767H-93.3944L-104.276 163.724L-93.623 145.029L-104.276 126.356L-93.4401 107.314H-72.0891L-61.6193 89.0119L-72.0891 70.6867ZM-61.0249 88.6417H-40.131L-29.6156 70.2934L-40.0854 51.945H-60.9335L-71.3805 70.2471L-61.0249 88.6417ZM-61.0249 126.727L-71.4718 145.029L-61.0249 163.354H-40.1768L-29.7299 145.029L-40.1768 126.727H-61.0249ZM-61.0249 238.807L-71.4718 257.109L-61.0249 275.411H-40.1768L-29.7299 257.109L-40.1768 238.807H-61.0249ZM-61.0249 350.864L-71.4718 369.189L-61.0249 387.491H-40.1768L-29.7299 369.189L-40.1768 350.864H-61.0249ZM-61.0249 462.943L-71.4718 481.246L-61.0249 499.571H-40.1768L-29.7299 481.246L-40.1768 462.943H-61.0249ZM-8.21886 480.875L2.22808 462.573L-8.21886 444.271H-29.067L-39.491 462.573L-29.067 480.875H-8.21886ZM55.7885 480.875L66.2355 462.573L55.7885 444.271H34.9404L24.4935 462.573L34.9404 480.875H55.7885ZM119.796 480.875L130.243 462.573L119.796 444.271H98.9478L88.5238 462.573L98.9478 480.875H119.796ZM183.803 480.875L194.25 462.573L183.803 444.271H162.955L152.508 462.573L162.955 480.875H183.803ZM247.811 480.875L258.235 462.573L247.811 444.271H226.963L216.516 462.573L226.963 480.875H247.811ZM311.818 480.875L322.265 462.573L311.818 444.271H290.97L280.523 462.573L290.97 480.875H311.818ZM375.826 480.875L386.25 462.573L375.826 444.271H354.429L343.982 462.573L354.429 480.875H375.826ZM439.833 480.875L450.28 462.573L439.833 444.271H418.436L407.989 462.573L418.436 480.875H439.833ZM503.84 480.875L514.287 462.573L503.84 444.271H482.444L471.997 462.573L482.444 480.875H503.84ZM450.44 -22.6979L439.993 -4.3495L450.44 13.9294H471.288L481.735 -4.41891L471.311 -22.6979H450.44ZM386.433 -22.6979L375.963 -4.3495L386.433 13.9294H407.281L417.75 -4.41891L407.326 -22.6979H386.433ZM322.425 -22.6979L311.955 -4.3495L322.425 13.9294H343.273L353.743 -4.41891L343.319 -22.6979H322.425ZM258.418 -22.6979L247.948 -4.3495L258.372 13.9294H279.22L289.69 -4.41891L279.266 -22.6979H258.418ZM194.41 -22.6979L183.94 -4.3495L194.365 13.9294H215.213L225.682 -4.41891L215.258 -22.6979H194.41ZM130.403 -22.6979L119.956 -4.3495L130.38 13.9294H151.228L161.675 -4.41891L151.251 -22.6979H130.403ZM66.3955 -22.6979L55.9257 -4.3495L66.3498 13.9294H87.1979L97.6677 -4.41891L87.2436 -22.6979H66.3955ZM2.38812 -22.6979L-8.05882 -4.3495L2.36523 13.9294H23.2133L33.6603 -4.41891L23.2362 -22.6979H2.38812ZM-61.6193 14.6699L-72.0662 32.9719L-61.6193 51.274H-40.7712L-30.3242 32.9719L-40.1768 14.7624L-61.6193 14.6699ZM23.762 462.203L34.2089 443.855L23.7848 425.599H2.93673L-7.51021 443.924L2.91385 462.203H23.762ZM87.7694 462.203L98.2392 443.855L87.8151 425.599H66.967L56.4972 443.924L66.9212 462.203H87.7694ZM151.777 462.203L162.224 443.855L151.8 425.599H130.952L120.505 443.924L130.929 462.203H151.777ZM215.784 462.203L226.254 443.855L215.83 425.599H194.982L184.512 443.924L194.936 462.203H215.784ZM279.792 462.203L290.261 443.855L279.837 425.599H258.989L248.519 443.924L258.943 462.203H279.792ZM343.799 462.203L354.269 443.855L343.845 425.599H322.997L312.527 443.924L322.951 462.203H343.799ZM407.806 462.203L418.276 443.855L407.852 425.599H386.433L375.963 443.924L386.387 462.203H407.806ZM471.814 462.203L482.261 443.855L471.837 425.599H450.44L439.993 443.924L450.417 462.203H471.814ZM450.44 14.7624L439.993 33.0645L450.44 51.274H471.288L481.712 32.9719L471.265 14.7624H450.44ZM386.433 14.7624L375.986 33.0645L386.433 51.274H407.281L417.728 32.9719L407.326 14.7624H386.433ZM322.425 14.7624L312.001 33.0645L322.425 51.274H343.273L353.72 32.9719L343.387 14.7624H322.425ZM258.418 14.7624L247.971 33.0645L258.418 51.3666H279.266L289.713 33.0645L279.472 14.7624H258.418ZM194.41 14.7624L183.986 33.0645L194.41 51.3666H215.258L225.705 33.0645L215.533 14.7624H194.41ZM130.403 14.7624L119.956 33.0645L130.403 51.3666H151.251L161.698 33.0645L151.617 14.7624H130.403ZM66.3955 14.7624L55.9486 33.0645L66.3955 51.3666H87.2436L97.6906 33.0645L87.678 14.7624H66.3955ZM2.38812 14.7624L-8.05882 33.0645L2.38812 51.3666H23.2362L33.6603 33.0645L23.762 14.7624H2.38812ZM-8.74459 406.256L1.70235 387.954L-8.74459 369.651H-29.5927L-40.0168 387.954L-29.5927 406.256H-8.74459ZM23.2591 424.951L33.6832 406.672L23.2362 388.324H2.38812L-8.03594 406.603L2.411 424.951H23.2591ZM87.2665 424.951L97.6906 406.672L87.2207 388.324H66.3726L55.9486 406.603L66.4184 424.951H87.2665ZM151.274 424.951L161.698 406.672L151.251 388.324H130.403L119.979 406.603L130.426 424.951H151.274ZM215.281 424.951L225.705 406.672L215.236 388.324H194.387L183.963 406.603L194.433 424.951H215.281ZM279.289 424.951L289.713 406.672L279.243 388.324H258.395L247.971 406.603L258.441 424.951H279.289ZM343.296 424.951L353.72 406.672L343.25 388.324H322.425L312.001 406.603L322.471 424.951H343.296ZM407.304 424.951L417.728 406.672L407.258 388.324H386.433L376.008 406.603L386.433 424.858L407.304 424.951ZM471.311 424.951L481.735 406.672L471.288 388.324H450.44L440.016 406.603L450.44 424.858L471.311 424.951ZM503.315 406.256L513.762 387.954L503.315 369.651H482.444L471.997 387.954L482.444 406.163L503.315 406.256ZM482.444 33.2727L471.997 51.5748L482.444 69.9463H503.292L513.739 51.6442L503.223 33.2727H482.444ZM450.44 51.945L440.016 70.2239L450.44 88.6417H471.288L481.712 70.2934L471.265 51.945H450.44ZM418.436 33.2727L407.989 51.5748L418.436 69.9463H439.284L449.731 51.6442L439.284 33.2727H418.436ZM386.433 51.945L376.008 70.2239L386.433 88.6417H407.281L417.796 70.2934L407.326 51.945H386.433ZM354.429 33.2727L343.982 51.5748L354.429 69.9463H375.277L385.701 51.6442L375.368 33.2727H354.429ZM322.425 51.945L312.001 70.2239L322.471 88.5723H343.319L353.857 70.2934L343.387 51.945H322.425ZM290.421 33.2727L279.974 51.5748L290.421 69.8769H311.27L321.716 51.5748L311.43 33.2727H290.421ZM258.418 51.945L247.994 70.2239L258.463 88.5723H279.312L289.941 70.2934L279.472 51.945H258.418ZM226.414 33.2727L215.967 51.5748L226.414 69.8769H247.262L257.686 51.5748L247.514 33.2727H226.414ZM194.41 51.945L183.986 70.2239L194.456 88.5723H215.304L226.003 70.2934L215.533 51.945H194.41ZM162.407 33.2727L151.96 51.5748L162.407 69.8769H183.255L193.702 51.5748L183.575 33.2727H162.407ZM130.403 51.945L120.345 70.2934L130.791 88.6417H151.64L162.064 70.2934L151.617 51.945H130.403ZM98.3992 33.2727L87.9752 51.5748L98.3992 69.8769H119.247L129.694 51.5748L119.636 33.2727H98.3992ZM66.3955 51.945L55.9715 70.2239L66.4413 88.5723H87.2894L98.1478 70.2934L87.678 51.945H66.3955ZM34.3918 33.2727L23.9449 51.5748L34.3918 69.8769H55.2399L65.6869 51.5748L55.72 33.2727H34.3918ZM2.38812 51.945L-8.03594 70.2239L2.411 88.5723H23.2591L34.2089 70.2934L23.762 51.945H2.38812ZM-29.6156 33.2727L-40.0396 51.5748L-29.6156 69.8769H-8.76747L1.67947 51.5748L-8.21886 33.2727H-29.6156ZM23.762 387.491L34.186 369.189L23.762 350.864H2.91385L-7.53309 369.189L2.91385 387.491H23.762ZM55.7657 368.818L66.167 350.493L55.72 332.191H34.8719L24.425 350.493L34.8719 368.772L55.7657 368.818ZM87.7694 387.491L98.2163 369.189L87.7694 350.864H66.9212L56.4743 369.189L66.9212 387.491H87.7694ZM119.773 368.818L130.22 350.493L119.773 332.191H98.9249L88.5009 350.493L98.7878 368.772L119.773 368.818ZM151.777 387.491L162.224 369.189L151.777 350.864H130.929L120.482 369.189L130.929 387.491H151.777ZM183.78 368.818L194.227 350.493L183.78 332.191H162.932L152.485 350.493L162.727 368.772L183.78 368.818ZM215.784 387.491L226.231 369.189L215.784 350.864H194.936L184.512 369.189L194.936 387.491H215.784ZM247.788 368.818L258.212 350.493L247.788 332.191H226.94L216.493 350.493L226.665 368.772L247.788 368.818ZM279.792 387.491L290.238 369.189L279.792 350.864H258.943L248.497 369.189L258.943 387.491H279.792ZM311.795 368.818L322.242 350.493L311.795 332.191H290.947L280.5 350.493L290.581 368.772L311.795 368.818ZM343.799 387.491L354.246 369.189L343.799 350.864H322.425L312.001 369.189L322.425 387.491H343.799ZM375.803 368.818L386.227 350.493L375.803 332.191H354.429L343.982 350.493L354.429 368.772L375.803 368.818ZM407.806 387.491L418.253 369.189L407.806 350.864H386.433L375.986 369.189L386.433 387.491H407.806ZM439.81 368.818L450.257 350.493L439.81 332.191H418.436L407.989 350.493L418.436 368.772L439.81 368.818ZM471.814 387.491L482.238 369.189L471.814 350.864H450.44L439.993 369.189L450.44 387.491H471.814ZM450.44 89.3821L439.993 107.707L450.44 125.986H471.288L481.735 107.661L471.311 89.3821H450.44ZM386.433 89.3821L375.963 107.707L386.433 125.986H407.281L417.75 107.661L407.326 89.3821H386.433ZM322.425 89.3821L311.955 107.707L322.425 125.986H343.273L353.743 107.661L343.319 89.3821H322.425ZM258.418 89.3821L247.948 107.707L258.372 125.986H279.22L289.69 107.661L279.266 89.3821H258.418ZM194.41 89.3821L183.94 107.707L194.365 125.986H215.213L225.682 107.661L215.258 89.3821H194.41ZM130.403 89.3821L119.956 107.707L130.38 125.986H151.228L161.675 107.661L151.251 89.3821H130.403ZM66.3955 89.3821L55.9257 107.707L66.3498 125.986H87.1979L97.6677 107.661L87.2436 89.3821H66.3955ZM2.38812 89.3821L-8.05882 107.707L2.36523 125.986H23.2133L33.6603 107.661L23.2362 89.3821H2.38812ZM2.38812 350.123H23.2362L34.2089 331.752L23.7848 313.473H2.93673L-7.51021 331.821L2.38812 350.123ZM87.1522 350.123L98.1478 331.752L87.7237 313.473H66.8756L56.4058 331.821L66.8299 350.077L87.1522 350.123ZM151.16 350.123L162.064 331.752L151.64 313.473H130.791L120.345 331.821L130.769 350.077L151.16 350.123ZM215.167 350.123L226.003 331.752L215.578 313.473H194.73L184.261 331.821L194.685 350.077L215.167 350.123ZM279.174 350.123L289.941 331.752L279.517 313.473H258.669L248.199 331.821L258.624 350.077L279.174 350.123ZM343.182 350.123L353.857 331.752L343.433 313.473H322.585L312.115 331.821L322.425 350.123H343.182ZM407.189 350.123L417.796 331.752L407.372 313.473H386.433L375.963 331.821L386.433 350.123H407.189ZM471.197 350.123L481.712 331.752L471.288 313.473H450.44L439.993 331.821L450.44 350.123H471.197ZM450.44 126.727L439.993 145.029L450.44 163.354H471.288L481.712 145.029L471.288 126.727H450.44ZM386.433 126.727L375.986 145.029L386.433 163.354H407.281L417.728 145.029L407.281 126.727H386.433ZM322.425 126.727L312.001 145.029L322.425 163.354H343.273L353.72 145.029L343.273 126.727H322.425ZM258.418 126.727L247.971 145.029L258.418 163.354H279.266L289.713 145.029L279.266 126.727H258.418ZM194.41 126.727L183.986 145.029L194.41 163.354H215.258L225.705 145.029L215.258 126.727H194.41ZM130.403 126.727L119.956 145.029L130.403 163.354H151.251L161.698 145.029L151.251 126.727H130.403ZM66.3955 126.727L55.9486 145.029L66.3955 163.354H87.2436L97.6906 145.029L87.2436 126.727H66.3955ZM2.38812 126.727L-8.05882 145.029L2.38812 163.354H23.2362L33.6603 145.029L23.2362 126.727H2.38812ZM2.38812 238.807L-8.05882 257.109L2.38812 275.411H23.2362L33.6603 257.109L23.2362 238.807H2.38812ZM87.1979 312.848L97.6219 294.569L87.678 276.221H66.8299L56.4058 294.5L66.8756 312.848H87.1979ZM151.205 312.848L161.629 294.569L151.617 276.221H130.769L120.345 294.5L130.791 312.848H151.205ZM215.213 312.848L225.637 294.569L215.533 276.221H194.685L184.261 294.5L194.73 312.848H215.213ZM279.22 312.848L289.644 294.569L279.472 276.221H258.624L248.199 294.5L258.669 312.848H279.22ZM343.227 312.848L353.652 294.569L343.387 276.221H322.425L312.001 294.5L322.471 312.848H343.227ZM407.235 312.848L417.659 294.569L407.326 276.221H386.433L376.008 294.5L386.433 312.779L407.235 312.848ZM471.242 275.48L481.666 257.178L471.242 238.876H450.44L439.993 257.178L450.44 275.411L471.242 275.48ZM418.436 145.422L407.989 163.724L418.436 182.026H439.284L449.731 163.724L439.284 145.422H418.436ZM386.433 164.094L376.008 182.373L386.433 200.699H407.281L417.705 182.42L407.235 164.094H386.433ZM354.429 145.422L343.982 163.724L354.429 182.026H375.277L385.701 163.724L375.277 145.422H354.429ZM322.425 164.094L312.001 182.373L322.471 200.699H343.319L353.743 182.42L343.273 164.094H322.425ZM290.421 145.422L279.974 163.724L290.421 182.026H311.27L321.716 163.724L311.27 145.422H290.421ZM258.418 164.094L247.994 182.373L258.463 200.699H279.312L289.736 182.42L279.266 164.094H258.418ZM226.414 145.422L215.967 163.724L226.414 182.026H247.262L257.686 163.724L247.262 145.422H226.414ZM194.41 164.094L183.986 182.373L194.456 200.699H215.304L225.728 182.42L215.258 164.094H194.41ZM162.407 145.422L151.96 163.724L162.407 182.026H183.255L193.702 163.724L183.255 145.422H162.407ZM130.403 164.094L119.979 182.373L130.426 200.699H151.274L161.698 182.42L151.251 164.094H130.403ZM98.3992 145.422L87.9752 163.724L98.3992 182.026H119.247L129.694 163.724L119.247 145.422H98.3992ZM66.3955 164.094L55.9715 182.373L66.4413 200.699H87.2894L97.7134 182.42L87.2436 164.094H66.3955ZM34.3918 145.422L23.9449 163.724L34.3918 182.026H55.2399L66.167 163.724L55.72 145.422H34.3918ZM55.2399 256.739L65.6869 238.436L55.2399 220.134H34.3918L23.9449 238.436L34.3918 256.739H55.2399ZM87.2436 275.411L97.6906 257.109L87.2436 238.807H66.3955L55.9486 257.109L66.3955 275.411H87.2436ZM119.247 256.739L129.694 238.436L119.247 220.134H98.3992L87.9752 238.436L98.3992 256.739H119.247ZM151.251 275.411L161.698 257.109L151.251 238.807H130.403L119.956 257.109L130.403 275.411H151.251ZM183.255 256.739L193.702 238.436L183.255 220.134H162.407L151.96 238.436L162.407 256.739H183.255ZM215.258 275.411L225.705 257.109L215.258 238.807H194.41L183.986 257.109L194.41 275.411H215.258ZM247.262 256.739L257.686 238.436L247.262 220.134H226.414L215.967 238.436L226.414 256.739H247.262ZM279.266 275.411L289.713 257.109L279.266 238.807H258.418L247.971 257.109L258.418 275.411H279.266ZM311.27 256.739L321.716 238.436L311.27 220.134H290.421L279.974 238.436L290.421 256.739H311.27ZM343.273 275.411L353.72 257.109L343.273 238.807H322.425L312.001 257.109L322.425 275.411H343.273ZM375.277 256.739L385.701 238.436L375.277 220.134H354.429L343.982 238.436L354.429 256.739H375.277ZM407.281 275.411L417.728 257.109L407.281 238.807H386.433L375.986 257.109L386.433 275.411H407.281ZM439.284 256.739L449.731 238.436L439.284 220.134H418.436L407.989 238.436L418.436 256.739H439.284ZM386.433 201.439L375.963 219.787L386.433 238.066H407.281L417.75 219.718L407.326 201.439H386.433ZM322.425 201.439L311.955 219.787L322.425 238.066H343.273L353.743 219.718L343.319 201.439H322.425ZM258.418 201.439L247.948 219.787L258.372 238.066H279.22L289.69 219.718L279.266 201.439H258.418ZM194.41 201.439L183.94 219.787L194.365 238.066H215.213L225.682 219.718L215.258 201.439H194.41ZM130.403 201.439L119.956 219.787L130.38 238.066H151.228L161.675 219.718L151.251 201.439H130.403ZM66.3955 201.439L55.9257 219.787L66.3498 238.066H87.1979L97.6677 219.718L87.2436 201.439H66.3955ZM34.3918 182.767L23.9449 201.069L34.3918 219.394H55.2399L65.664 201.069L55.2399 182.767H34.3918ZM98.3992 182.767L87.9523 201.069L98.3992 219.394H119.247L129.694 201.069L119.247 182.767H98.3992ZM162.407 182.767L151.96 201.069L162.407 219.394H183.255L193.702 201.069L183.255 182.767H162.407ZM226.414 182.767L215.967 201.069L226.414 219.394H247.262L257.709 201.069L247.262 182.767H226.414ZM290.421 182.767L279.974 201.069L290.421 219.394H311.27L321.716 201.069L311.27 182.767H290.421ZM354.429 182.767L344.005 201.069L354.429 219.394H375.277L385.724 201.069L375.277 182.767H354.429ZM418.436 182.767L407.989 201.069L418.436 219.394H439.284L449.731 201.069L439.284 182.767H418.436ZM439.239 294.106L449.686 275.781L439.239 257.479H418.436L407.989 275.781L418.436 294.106H439.239ZM375.231 294.106L385.655 275.781L375.231 257.479H354.429L343.982 275.781L354.429 294.106H375.231ZM311.224 294.106L321.671 275.781L311.224 257.479H290.376L279.929 275.781L290.376 294.106H311.224ZM247.216 294.106L257.64 275.781L247.216 257.479H226.368L215.921 275.781L226.368 294.106H247.216ZM183.209 294.106L193.656 275.781L183.209 257.479H162.361L151.914 275.781L162.361 294.106H183.209ZM119.202 294.106L129.649 275.781L119.202 257.479H98.3535L87.9294 275.781L98.3535 294.106H119.202ZM55.1942 294.106L65.6411 275.781L55.1942 257.479H34.3461L23.8991 275.781L34.3461 294.106H55.1942ZM34.3461 108.054L23.8991 126.356L34.3461 144.659H55.1942L65.6411 126.356L55.1942 108.054H34.3461ZM98.3535 108.054L87.9294 126.356L98.3535 144.659H119.202L129.649 126.356L119.202 108.054H98.3535ZM162.361 108.054L151.914 126.356L162.361 144.659H183.209L193.656 126.356L183.209 108.054H162.361ZM226.368 108.054L215.921 126.356L226.368 144.659H247.216L257.64 126.356L247.216 108.054H226.368ZM290.376 108.054L279.929 126.356L290.376 144.659H311.224L321.671 126.356L311.224 108.054H290.376ZM354.383 108.054L343.936 126.356L354.429 144.659H375.277L385.701 126.356L375.277 108.054H354.383ZM418.39 108.054L407.944 126.356L418.436 144.659H439.284L449.731 126.356L439.284 108.054H418.39ZM471.265 164.094H450.44L440.016 182.373L450.44 200.699H471.288L481.712 182.42L471.265 164.094ZM471.265 201.439H450.44L439.993 219.787L450.44 238.066H471.288L481.735 219.718L471.265 201.439ZM471.265 276.151H450.44L440.016 294.43L450.44 312.779H471.288L481.712 294.5L471.265 276.151ZM439.261 331.451L449.777 313.241L439.33 294.939H418.436L408.035 313.241L418.436 331.451H439.261ZM375.254 331.451L385.838 313.241L375.391 294.939H354.429L344.119 313.241L354.429 331.451H375.254ZM311.247 331.451L321.922 313.241L311.475 294.939H290.627L280.18 313.241L290.627 331.543L311.247 331.451ZM247.239 331.451L257.983 313.241L247.536 294.939H226.688L216.241 313.241L226.688 331.543L247.239 331.451ZM183.232 331.451L194.067 313.241L183.621 294.939H162.772L152.326 313.241L162.772 331.543L183.232 331.451ZM119.224 331.451L130.129 313.241L119.682 294.939H98.8336L88.3866 313.241L98.8336 331.543L119.224 331.451ZM55.217 331.451L66.1897 313.241L55.7657 294.939H34.9175L24.4706 313.241L34.9175 331.543L55.217 331.451ZM2.38812 312.779H23.2362L33.6603 294.5L23.762 276.221H2.91385L-7.51021 294.5L2.38812 312.779ZM2.38812 238.066H23.2362L33.6832 219.718L23.2591 201.439H2.411L-8.03594 219.787L2.38812 238.066ZM2.38812 200.699H23.2362L33.6603 182.42L23.2133 164.094H2.36523L-8.05882 182.373L2.38812 200.699ZM34.3918 70.6867L23.9449 89.0119L34.9175 107.314H55.7657L66.1897 89.0119L55.7657 70.6867H34.3918ZM98.3992 70.6867L87.9523 89.0119L98.8336 107.314H119.682L130.129 89.0119L119.682 70.6867H98.3992ZM162.407 70.6867L151.96 89.0119L162.772 107.314H183.621L194.067 89.0119L183.621 70.6867H162.407ZM226.414 70.6867L215.967 89.0119L226.688 107.314H247.536L257.983 89.0119L247.536 70.6867H226.414ZM290.421 70.6867L279.974 89.0119L290.627 107.314H311.475L321.922 89.0119L311.475 70.6867H290.421ZM354.429 70.6867L344.005 89.0119L354.429 107.314H375.277L385.724 89.0119L375.277 70.6867H354.429ZM418.436 70.6867L407.989 89.0119L418.436 107.314H439.284L449.731 89.0119L439.284 70.6867H418.436ZM482.444 70.6867L472.02 89.0119L482.444 107.314H503.246L513.693 89.0119L503.246 70.6867H482.444ZM482.444 108.054L471.997 126.356L482.444 144.659H503.292L513.739 126.356L503.292 108.054H482.444ZM482.444 145.422L471.997 163.724L482.444 182.026H503.292L513.739 163.724L503.292 145.422H482.444ZM482.444 182.767L472.02 201.069L482.444 219.394H503.246L513.693 201.069L503.246 182.767H482.444ZM482.444 220.134L471.997 238.436L482.444 256.739H503.292L513.739 238.436L503.292 220.134H482.444ZM482.444 257.479L471.997 275.781L482.444 294.106H503.292L513.739 275.781L503.292 257.479H482.444ZM482.444 294.847L471.974 313.241L482.444 331.451H503.246L513.693 313.241L503.246 294.939L482.444 294.847ZM482.444 332.191L471.997 350.493L482.444 368.772H503.292L513.739 350.447L503.292 332.145L482.444 332.191ZM439.353 406.232L449.8 387.93L439.353 369.628H418.436L407.989 387.93L418.436 406.163L439.353 406.232ZM375.346 406.232L385.77 387.93L375.346 369.628H354.429L343.982 387.93L354.429 406.163L375.346 406.232ZM311.338 406.232L321.785 387.93L311.338 369.628H290.49L280.043 387.93L290.49 406.232H311.338ZM247.331 406.232L257.755 387.93L247.331 369.628H226.483L216.036 387.93L226.483 406.232H247.331ZM183.323 406.232L193.77 387.93L183.323 369.628H162.475L152.028 387.93L162.475 406.232H183.323ZM119.316 406.232L129.763 387.93L119.316 369.628H98.4679L88.0437 387.93L98.4679 406.232H119.316ZM55.3086 406.232L65.7554 387.93L55.3086 369.628H34.4605L24.0135 387.93L34.4605 406.232H55.3086ZM-29.067 368.772H-8.21886L2.22808 350.447L-8.21886 332.145H-29.067L-39.491 350.447L-29.067 368.772ZM-8.17309 331.405L2.27384 313.241L-8.17309 294.939H-29.0212L-39.4681 313.241L-29.0212 331.543L-8.17309 331.405ZM-8.17309 294.06L2.27384 275.735L-8.17309 257.433H-29.0212L-39.4453 275.735L-29.0212 294.06H-8.17309ZM-29.0212 256.692H-8.17309L2.27384 238.39L-8.17309 220.088H-29.0212L-39.4453 238.39L-29.0212 256.692ZM-8.12733 219.348L2.31947 201.022L-8.12733 182.72H-28.9754L-39.4224 201.022L-28.9754 219.348H-8.12733ZM-8.12733 181.98L2.31947 163.678L-8.12733 145.376H-28.9754L-39.3996 163.678L-28.9754 181.98H-8.12733ZM-28.9754 144.612H-8.12733L2.31947 126.31L-8.12733 108.008H-28.9754L-39.3996 126.31L-28.9754 144.612ZM-8.17309 107.314L2.27384 89.0119L-8.17309 70.6867H-29.0212L-39.4681 89.0119L-29.0212 107.314H-8.17309ZM-29.067 -4.02557L-39.491 14.2997L-29.067 32.6017H-8.21886L2.22808 14.2997L-8.21886 -4.02557H-29.067ZM34.9404 -4.02557L24.4935 14.2997L34.9404 32.6017H55.7885L66.167 14.2997L55.72 -4.02557H34.9404ZM98.9478 -4.02557L88.5238 14.2997L98.9478 32.6017H119.796L130.243 14.2997L119.796 -4.02557H98.9478ZM162.955 -4.02557L152.508 14.2997L162.955 32.6017H183.803L194.25 14.2997L183.803 -4.02557H162.955ZM226.963 -4.02557L216.516 14.2997L226.963 32.6017H247.811L258.235 14.2997L247.811 -4.02557H226.963ZM290.97 -4.02557L280.523 14.2997L290.97 32.6017H311.818L322.265 14.2997L311.818 -4.02557H290.97ZM354.977 -4.02557L344.53 14.2997L354.429 32.6017H375.277L385.701 14.2997L375.277 -4.02557H354.977ZM418.985 -4.02557L408.538 14.2997L418.436 32.6017H439.284L449.731 14.2997L439.284 -4.02557H418.985ZM482.992 -4.02557L472.545 14.2997L482.444 32.6017H503.292L513.739 14.2997L503.292 -4.02557H482.992ZM503.246 443.531L513.693 425.229L503.246 406.903H482.444L472.02 425.229L482.444 443.531H503.246ZM439.239 443.531L449.686 425.229L439.239 406.903H418.436L407.989 425.229L418.436 443.531H439.239ZM375.231 443.531L385.678 425.229L375.231 406.903H354.429L344.005 425.229L354.429 443.531H375.231ZM311.224 443.531L321.671 425.229L311.224 406.903H290.376L279.929 425.229L290.376 443.531H311.224ZM247.216 443.531L257.663 425.229L247.216 406.903H226.368L215.921 425.229L226.368 443.531H247.216ZM183.209 443.531L193.656 425.229L183.209 406.903H162.361L151.914 425.229L162.361 443.531H183.209ZM119.202 443.531L129.649 425.229L119.202 406.903H98.3535L87.9065 425.229L98.3535 443.531H119.202ZM55.1942 443.531L65.6182 425.229L55.1942 406.903H34.3461L23.8991 425.229L34.3461 443.531H55.1942ZM-8.81323 443.531L1.6337 425.229L-8.81323 406.903H-29.6613L-40.1083 425.229L-29.6613 443.531H-8.81323ZM-39.4681 -23.068L-29.0212 -4.76598H-8.17309L2.27384 -23.068L-8.17309 -41.3701H-29.0212L-39.4681 -23.068ZM24.5393 -23.068L34.9862 -4.76598H55.8343L66.2584 -23.068L55.8343 -41.3701H34.9862L24.5393 -23.068ZM88.5467 -23.068L98.9936 -4.76598H119.842L130.289 -23.068L119.842 -41.3701H98.9936L88.5467 -23.068ZM152.554 -23.068L163.001 -4.76598H183.849L194.296 -23.068L183.849 -41.3701H163.001L152.554 -23.068ZM216.561 -23.068L227.008 -4.76598H247.857L258.303 -23.068L247.857 -41.3701H227.008L216.561 -23.068ZM280.569 -23.068L291.016 -4.76598H311.864L322.311 -23.068L311.864 -41.3701H291.016L280.569 -23.068ZM344.576 -23.068L354.429 -4.76598H375.277L385.724 -23.068L375.277 -41.3701H354.429L344.576 -23.068ZM408.584 -23.068L418.436 -4.76598H439.284L449.731 -23.068L439.284 -41.3701H418.436L408.584 -23.068ZM472.591 -23.068L482.444 -4.76598H503.246L513.693 -23.068L503.246 -41.3701H482.444L472.591 -23.068ZM482.306 481.338L471.882 463.036H450.44L439.993 481.338L450.44 499.571H471.288L482.306 481.338ZM418.299 481.338L407.852 463.036H386.433L375.986 481.338L386.433 499.571H407.281L418.299 481.338ZM354.292 481.338L343.845 463.036H322.425L312.001 481.338L322.425 499.571H343.273L354.292 481.338ZM290.284 481.338L279.837 463.036H258.989L248.542 481.338L258.989 499.663H279.837L290.284 481.338ZM226.277 481.338L215.83 463.036H194.982L184.558 481.338L194.982 499.663H215.83L226.277 481.338ZM162.269 481.338L151.823 463.036H130.974L120.527 481.338L130.974 499.663H151.823L162.269 481.338ZM98.2621 481.338L87.8151 463.036H66.967L56.5201 481.338L66.967 499.663H87.8151L98.2621 481.338ZM34.2547 481.338L23.8306 463.036H2.98249L-7.46445 481.338L2.98249 499.663H23.8306L34.2547 481.338ZM-92.9601 70.0388H-72.0662L-61.6193 51.6442L-72.1347 33.2727H-93.0286L-103.476 51.5748L-92.9601 70.0388ZM-103.407 14.3922L-92.9601 32.6943H-72.0662L-61.6193 14.2997L-72.0662 -4.02557H-92.9601L-103.407 14.3922ZM-60.9564 14.022H-40.1083L-29.6156 -4.41891L-40.0396 -22.6979H-60.9335L-71.3805 -4.39577L-60.9564 14.022ZM-40.0625 -60.0193H-60.9564L-71.4033 -41.7172L-60.9564 -23.4151H-40.131L-29.6156 -41.7403L-40.0625 -60.0193ZM23.9449 -60.0193H3.07388L-7.35018 -41.7635L3.09676 -23.4151H23.9449L34.3918 -41.7172L23.9449 -60.0193ZM87.9523 -60.0193H67.0584L56.6343 -41.7635L67.1042 -23.4151H87.9523L98.3992 -41.7172L87.9523 -60.0193ZM151.96 -60.0193H131.089L120.665 -41.7635L131.112 -23.4151H151.96L162.407 -41.7172L151.96 -60.0193ZM215.967 -60.0193H195.073L184.649 -41.7635L195.119 -23.4151H215.967L226.414 -41.7172L215.967 -60.0193ZM279.974 -60.0193H259.081L248.657 -41.7635L259.126 -23.4151H279.974L290.399 -41.7172L279.974 -60.0193ZM343.982 -60.0193H322.425L312.001 -41.7635L322.471 -23.4151H343.319L353.766 -41.7172L343.982 -60.0193ZM407.989 -60.0193H386.433L376.008 -41.7635L386.433 -23.4383H407.281L417.705 -41.7403L407.989 -60.0193ZM471.997 -60.0193H450.44L440.016 -41.7635L450.44 -23.4383H471.288L481.735 -41.7403L471.997 -60.0193ZM536.004 -60.0193H515.11L504.686 -41.7635L514.447 -23.4383H535.295L545.719 -41.7403L536.004 -60.0193ZM578.432 -22.9986L568.008 -41.3007H547.114L536.667 -22.9986L547.114 -4.69657H568.008L578.432 -22.9986ZM536.004 -22.6284H514.447L503.977 -4.28009L514.402 13.9989H535.295L545.719 -4.32636L536.004 -22.6284ZM536.004 14.7393H515.11L504.663 33.0413L515.11 51.3434H536.004L546.428 33.0413L536.004 14.7393ZM536.004 52.0838H515.11L504.686 70.3628L514.447 88.6417H535.295L545.651 70.2934L536.004 52.0838ZM578.432 89.1045L568.008 70.7793H547.114L536.667 89.1045L546.337 107.314H567.231L578.432 89.1045ZM536.004 89.4747H514.447L503.977 107.8L514.402 126.079H535.295L545.719 107.777L536.004 89.4747ZM536.004 126.819H515.11L504.663 145.121L515.11 163.447H536.004L546.428 145.121L536.004 126.819ZM536.004 164.187H515.11L504.686 182.466L514.447 200.699H535.295L545.719 182.396L536.004 164.187ZM578.432 201.208L568.008 182.905H547.114L536.667 201.208L547.114 219.533H568.008L578.432 201.208ZM536.004 201.578H514.447L503.977 219.926L514.402 238.205H535.295L545.719 219.903L536.004 201.578ZM536.004 238.945H515.11L504.663 257.248L515.11 275.55H536.004L546.428 257.248L536.004 238.945ZM536.004 276.29H515.11L504.686 294.569L514.447 312.779H535.295L545.719 294.476L536.004 276.29ZM577.655 313.241L567.231 294.939H546.337L535.89 313.241L546.337 331.543H567.231L577.655 313.241ZM535.227 313.611H514.447L503.977 331.96L514.402 350.216H535.295L545.651 331.752L535.227 313.611ZM535.227 350.956H514.333L503.886 369.281L514.333 387.583H535.227L545.651 369.281L535.227 350.956ZM535.227 388.324H514.333L503.909 406.603L514.447 424.858H535.295L545.719 406.533L535.227 388.324ZM577.655 425.344L567.231 407.019H546.337L535.89 425.344L546.337 443.646H567.231L577.655 425.344ZM535.227 425.715H514.447L503.977 444.04L514.402 462.319H535.295L545.719 444.017L535.227 425.715ZM545.651 481.246L535.227 462.943H514.333L503.886 481.246L514.333 499.571H535.227L545.651 481.246ZM482.329 518.266H503.223L513.67 499.964L503.223 481.639H482.444L471.974 499.987L482.329 518.266ZM418.322 518.266H439.193L449.64 499.964L439.193 481.639H418.436L407.989 499.987L418.322 518.266ZM354.315 518.266H375.208L385.632 499.964L375.208 481.639H354.429L343.959 499.987L354.315 518.266ZM290.307 518.266H311.178L321.625 499.964L311.178 481.639H290.33L279.883 499.987L290.307 518.266ZM226.3 518.266H247.194L257.618 499.964L247.194 481.639H226.345L215.876 499.987L226.3 518.266ZM162.292 518.266H183.186L193.633 499.964L183.186 481.639H162.338L151.868 499.987L162.292 518.266ZM98.2849 518.266H119.156L129.603 499.964L119.156 481.639H98.3078L87.8609 499.987L98.2849 518.266ZM34.2775 518.266H55.1714L65.6182 499.964L55.1714 481.639H34.3232L23.8535 499.987L34.2775 518.266ZM-29.7299 518.266H-8.85886L1.58808 499.964L-8.85886 481.639H-29.707L-40.1539 499.987L-29.7299 518.266ZM-93.7373 518.266H-72.8434L-62.3966 499.964L-72.8434 481.639H-93.7373L-104.184 499.964L-93.7373 518.266ZM-104.184 462.596L-93.7373 480.898H-72.8434L-62.3966 462.596L-72.8434 444.294H-93.7373L-104.184 462.596ZM-61.7336 462.226H-40.8854L-29.6156 443.855L-40.0396 425.599H-60.9335L-71.3805 443.901L-61.7336 462.226ZM-61.7336 424.882H-40.131L-29.6156 406.58L-40.0854 388.231H-60.9335L-71.3805 406.533L-61.7336 424.882ZM-93.7373 406.186H-72.8434L-61.6193 387.861L-72.0662 369.559H-92.9601L-103.407 387.861L-93.7373 406.186ZM-104.184 350.516L-93.0286 368.772H-72.1347L-61.6193 350.493L-72.0662 332.191H-92.9601L-104.184 350.516ZM-61.7336 350.146H-40.8854L-29.6156 331.752L-40.0396 313.473H-60.9335L-71.3805 331.775L-61.7336 350.146ZM-61.7336 312.802H-40.131L-29.6156 294.5L-40.1768 276.221H-61.0249L-71.4718 294.546L-61.7336 312.802ZM-93.7373 294.129H-72.8434L-61.6193 275.781L-72.0662 257.479H-92.9601L-103.407 275.781L-93.7373 294.129ZM-104.184 238.46L-93.7373 256.762H-72.8434L-61.6193 238.436L-72.0662 220.134H-92.9601L-104.184 238.46ZM-61.7336 238.089H-40.8854L-29.6156 219.718L-40.0396 201.439H-60.9335L-71.3805 219.764L-61.7336 238.089ZM-61.7336 200.722H-40.131L-29.6156 182.42L-40.0854 164.094H-60.9335L-71.3805 182.396L-61.7336 200.722ZM-93.7373 182.049H-72.8434L-61.6193 163.724L-72.0662 145.422H-92.9601L-103.407 163.724L-93.7373 182.049ZM-104.184 126.38L-93.7373 144.682H-72.8434L-61.6193 126.356L-72.0662 108.054H-92.9601L-104.184 126.38ZM-61.7336 126.009H-40.8854L-29.6156 107.661L-40.0396 89.3821H-60.9335L-71.3805 107.684L-61.7336 126.009Z" fill="url(#paint3_radial_2_550)"/>
<path style="mix-blend-mode:color-dodge" opacity="0.16" d="M877.255 679.907C1119.8 742.195 1178.16 843.539 1191.99 893.84H937.788C914.928 832.085 869.871 775.837 785.587 745.758C531.844 655.52 598.137 392.512 598.137 392.512C570.5 527.174 628.746 616.093 877.255 679.907Z" fill="url(#paint4_linear_2_550)"/>
<g style="mix-blend-mode:overlay">
<path d="M1175.64 17.2381C1165.69 1.68172 1156.91 -14.6154 1149.38 -31.5134H1151.87C1159.27 -15.0763 1167.86 0.785482 1177.56 15.9424C1219.49 81.8623 1307.06 176.728 1488 265.485V268.053C1305.92 178.879 1217.82 83.4819 1175.64 17.2381Z" fill="url(#paint5_radial_2_550)"/>
<path d="M919.866 686.178C774.317 673.452 673.551 625.695 620.402 544.25C588.97 496.123 576.42 440.893 583.118 379.971C588.81 328.258 608.835 272.889 641.022 219.857C647.377 209.398 654.121 198.709 660.636 188.343C703.429 120.433 747.617 50.2559 735.227 -31.5134H737.513C749.88 50.9038 705.51 121.382 662.487 189.662C655.972 200.004 649.229 210.694 642.897 221.129C572.237 337.559 564.693 454.822 622.323 542.954C675.106 623.775 775.3 671.184 920.14 683.864C1079.7 697.747 1181.79 746.915 1223.6 829.748C1233.57 849.819 1239.96 871.505 1242.51 893.817H1240.22C1237.71 871.87 1231.39 850.543 1221.57 830.813C1180.08 748.743 1078.6 700.084 919.866 686.178Z" fill="url(#paint6_radial_2_550)"/>
</g>
</g>
<defs>
<pattern id="pattern0_2_550" patternContentUnits="objectBoundingBox" width="1" height="1">
<use xlink:href="#image0_2_550" transform="matrix(0.000244272 0 0 0.000359066 -0.000268966 0)"/>
</pattern>
<linearGradient id="paint0_linear_2_550" x1="911.042" y1="258.566" x2="-826.024" y2="1297.33" gradientUnits="userSpaceOnUse">
<stop offset="0.11" stop-color="#054BB0"/>
<stop offset="0.84" stop-color="#012863"/>
<stop offset="1" stop-color="#002052"/>
</linearGradient>
<linearGradient id="paint1_linear_2_550" x1="175.437" y1="-245.03" x2="620.26" y2="952.301" gradientUnits="userSpaceOnUse">
<stop offset="0.11" stop-color="#054BB0"/>
<stop offset="0.84" stop-color="#012863"/>
<stop offset="1" stop-color="#002052"/>
</linearGradient>
<radialGradient id="paint2_radial_2_550" cx="0" cy="0" r="1" gradientUnits="userSpaceOnUse" gradientTransform="translate(486.833 763.343) rotate(180) scale(357.71 362.062)">
<stop stop-color="white"/>
<stop offset="0.25" stop-color="#B9B9B9" stop-opacity="0.73"/>
<stop offset="0.62" stop-color="#575757" stop-opacity="0.34"/>
<stop offset="0.88" stop-color="#181818" stop-opacity="0.09"/>
<stop offset="1" stop-opacity="0"/>
</radialGradient>
<radialGradient id="paint3_radial_2_550" cx="0" cy="0" r="1" gradientUnits="userSpaceOnUse" gradientTransform="translate(192.147 277.239) rotate(180) scale(285.93 289.409)">
<stop stop-color="white"/>
<stop offset="0.25" stop-color="#B9B9B9" stop-opacity="0.73"/>
<stop offset="0.62" stop-color="#575757" stop-opacity="0.34"/>
<stop offset="0.88" stop-color="#181818" stop-opacity="0.09"/>
<stop offset="1" stop-opacity="0"/>
</radialGradient>
<linearGradient id="paint4_linear_2_550" x1="804.95" y1="440.731" x2="973.172" y2="949.698" gradientUnits="userSpaceOnUse">
<stop offset="0.11" stop-color="#054BB0"/>
<stop offset="0.84" stop-color="#012863"/>
<stop offset="1" stop-color="#002052"/>
</linearGradient>
<radialGradient id="paint6_radial_2_550" cx="0" cy="0" r="1" gradientUnits="userSpaceOnUse" gradientTransform="translate(911.888 431.175) rotate(180) scale(398.88 403.733)">
<stop stop-color="#FFFEFF"/>
<stop offset="0.24" stop-color="#FAFBFC"/>
<stop offset="0.51" stop-color="#EDF2F2"/>
<stop offset="0.8" stop-color="#D6E3E3"/>
<stop offset="1" stop-color="#C2D6D5"/>
</radialGradient>
<clipPath id="clip0_2_550">
<rect width="1272" height="894" fill="white" transform="matrix(-1 0 0 1 1272 0)"/>
</clipPath>
<clipPath id="clip1_2_550">
<rect width="37.7843" height="38.6239" fill="white" transform="matrix(-1 0 0 1 325.784 780)"/>
</clipPath>
<clipPath id="clip2_2_550">
<rect width="37.7843" height="38.6239" fill="white" transform="matrix(1 0 0 -1 409.951 818.624)"/>
</clipPath></defs>
</svg>
