<svg width="304" height="292" viewBox="0 0 304 292" fill="none" xmlns="http://www.w3.org/2000/svg">
<g clip-path="url(#clip0_2_567)">
<path d="M-0.256279 -1.65512H304.596V254.19C102.492 195.953 27.5078 80.5474 -0.256279 -1.65512Z" fill="url(#paint0_linear_2_567)"/>
<path d="M304.596 217.877C93.4548 184.923 28.6917 64.933 8.91946 -1.74594H304.596V217.877Z" fill="url(#paint1_linear_2_567)"/>
<path style="mix-blend-mode:color-dodge" opacity="0.19" d="M14.4312 56.0553H4.92563L0.0777937 47.6505L4.79599 39.4013L0.0431941 31.1522L4.89106 22.7388H14.3967L19.0544 14.6539L14.3016 6.41344L19.1495 -2H28.897L33.6498 6.24915H42.9826L47.744 -2H57.4484L62.2098 6.24915H71.5339L76.2954 -2H85.9997L90.7611 6.24915H100.085L104.864 -2H114.551L119.313 6.24915H128.645L133.381 -2H143.111L147.864 6.24915H157.197L161.958 -2H171.662L176.424 6.24915H185.748L190.509 -2H200.214L204.975 6.24915H214.308L219.061 -2H228.774L233.527 6.24915H242.859L247.612 -2H257.325L262.078 6.24915H271.411L276.172 -2H285.876L290.638 6.24915H300.143L305 14.6539L300.143 23.0673H290.638L285.972 31.1522L290.733 39.4013L285.972 47.6505L290.638 55.7353H300.143L305 64.1401L300.143 72.5535H290.638L285.972 80.6384L290.733 88.8875L285.972 97.1367L290.638 105.222H300.143L305 113.626L300.143 122.04H290.638L285.972 130.125L290.733 138.374L285.972 146.623L290.638 154.708H300.143L305 163.112L300.143 171.526H290.638L285.972 179.611L290.733 187.86L285.972 196.109L290.638 204.194H300.143L305 212.599L300.161 220.986H290.655L285.989 229.071L290.75 237.32L285.894 245.734H276.388L271.627 253.974H261.922L257.161 245.734H247.828L243.075 253.974H233.362L228.61 245.734H219.277L214.515 253.974H204.811L200.05 245.734H190.725L185.964 253.974H176.26L171.498 245.734H162.131L157.369 253.974H147.665L142.886 245.76H133.554L128.801 254H119.105L114.37 245.76H105.037L100.275 254H90.5538L85.7923 245.76H76.4682L71.7068 254H62.0024L57.241 245.76H47.9169L43.1554 254H33.4511L28.6896 245.76H19.3136L14.5608 254H4.84784L-2.59739e-06 245.595L4.7528 237.346L-2.59739e-06 229.097L4.84784 220.684H14.3534L19.0112 212.599L14.3534 204.514H4.84784L-2.59739e-06 196.109L4.7528 187.86L-2.59739e-06 179.611L4.84784 171.197H14.3534L19.0112 163.112L14.3534 155.028H4.84784L0.0431941 146.623L4.79599 138.374L0.0431941 130.125L4.89106 121.711H14.3967L19.0544 113.626L14.3967 105.541H4.89106L0.0431941 97.1367L4.79599 88.8875L0.0431941 80.6384L4.89106 72.2595H14.3967L19.0544 64.1747L14.4312 56.0553ZM19.3741 63.9758H28.7069L33.3646 55.9083L28.6896 47.8148H19.3741L14.7164 55.8996L19.3741 63.9758ZM19.3741 80.8027L14.7164 88.8875L19.3741 96.9724H28.6896L33.356 88.8875L28.6896 80.8027H19.3741ZM19.3741 130.289L14.7164 138.374L19.3741 146.459H28.6896L33.356 138.374L28.6896 130.289H19.3741ZM19.3741 179.775L14.7164 187.86L19.3741 195.91H28.6896L33.356 187.825L28.6896 179.74L19.3741 179.775ZM19.3741 229.261L14.7164 237.346L19.3741 245.431H28.6896L33.356 237.346L28.6896 229.261H19.3741ZM42.9653 237.182L47.6317 229.097L42.9653 221.012H33.6498L28.9921 229.097L33.6498 237.182H42.9653ZM71.4821 237.182L76.1485 229.097L71.4821 221.012H62.1752L57.5088 229.097L62.1752 237.182H71.4821ZM99.9989 237.182L104.665 229.097L99.9989 221.012H90.7611L86.0948 229.097L90.7611 237.182H99.9989ZM128.516 237.182L133.182 229.097L128.628 220.986H119.313L114.646 229.071L119.313 237.156L128.516 237.182ZM157.032 237.182L161.699 229.097L157.179 220.986H147.864L143.206 229.071L147.864 237.156L157.032 237.182ZM185.549 237.182L190.414 229.097L185.748 221.012H176.441L171.775 229.097L176.441 237.182H185.549ZM214.109 237.182L218.931 229.097L214.273 221.012H204.958L200.292 229.097L204.958 237.182H214.109ZM242.626 237.182L247.284 229.097L242.626 221.012H233.311L228.644 229.097L233.311 237.182H242.626ZM271.143 237.182L275.809 229.097L271.143 221.012H261.827L257.17 229.097L261.827 237.182H271.143ZM247.569 14.8182L242.903 22.9204L247.552 30.9879H256.867L261.542 22.8944L256.884 14.8182H247.569ZM219.052 14.8182L214.377 22.9204L219.035 30.9879H228.566L233.233 22.8944L228.584 14.8182H219.052ZM190.535 14.8182L185.86 22.9204L190.518 30.9879H200.006L204.681 22.8944L200.024 14.8182H190.535ZM162.019 14.8182L157.344 22.9204L162.001 30.9879H171.455L176.13 22.8944L171.472 14.8182H162.019ZM133.459 14.8182L128.792 22.9204L133.441 30.9879H142.886L147.561 22.8944L142.886 14.8182H133.459ZM104.942 14.8182L100.267 22.9204L104.924 30.9879H114.37L119.036 22.8944L114.37 14.8182H104.942ZM76.425 14.8182L71.75 22.9204L76.4077 30.9879H85.7923L90.4673 22.8944L85.8096 14.8182H76.425ZM47.9082 14.8182L43.2332 22.9204L47.8909 30.9879H57.241L61.916 22.8944L57.2583 14.8182H47.9082ZM19.3309 31.3165L14.6732 39.4013L19.3309 47.4862H28.6896L33.356 39.4013L28.6896 31.3165H19.3309ZM57.241 228.933L61.916 220.839L57.2583 212.763H47.9514L43.2764 220.865L47.9341 228.933H57.241ZM85.7578 228.933L90.4328 220.839L85.775 212.763H76.5028L71.8277 220.865L76.4855 228.933H85.7578ZM114.275 228.933L118.941 220.839L114.37 212.763H105.054L100.379 220.865L105.037 228.933H114.275ZM142.791 228.933L147.466 220.839L142.886 212.763H133.605L128.939 220.865L133.588 228.933H142.791ZM171.308 228.933L175.983 220.839L171.325 212.763H162.165L157.49 220.865L162.148 228.933H171.308ZM199.825 228.933L204.5 220.839L199.842 212.763H190.535L185.86 220.865L190.518 228.933H199.825ZM228.385 228.933L233.051 220.839L228.402 212.763H219.087L214.412 220.865L219.069 228.933H228.385ZM256.902 228.933L261.577 220.839L256.919 212.763H247.603L242.937 220.865L247.586 228.933H256.902ZM247.586 31.3165L243.127 39.4013L247.785 47.4862H257.1L261.767 39.4013L257.1 31.3165H247.586ZM219.069 31.3165L214.61 39.4013L219.277 47.4862H228.566L233.224 39.4013L228.566 31.3165H219.069ZM190.553 31.3165L185.886 39.4013L190.553 47.4862H200.006L204.673 39.4013L200.006 31.3165H190.553ZM162.036 31.3165L157.482 39.4013L162.148 47.4862H171.455L176.121 39.4013L171.455 31.3165H162.036ZM133.476 31.3165L128.93 39.4013L133.588 47.4862H142.886L147.57 39.4013L142.904 31.3165H133.476ZM104.959 31.3165L100.37 39.4013L105.037 47.4862H114.37L119.01 39.4013L114.37 31.3165H104.959ZM76.4423 31.3165L71.7759 39.4013L76.4423 47.4862H85.7923L90.4587 39.4013L85.7923 31.3165H76.4423ZM47.9255 31.3165L43.2591 39.4013L47.9255 47.4862H57.241L61.9074 39.4013L57.241 31.3165H47.9255ZM42.9567 204.194L47.623 196.109L42.9567 188.024H33.6412L28.9834 196.109L33.6412 204.194H42.9567ZM57.2496 212.434L61.9074 204.367L57.2323 196.273H47.9255L43.2677 204.341L47.9428 212.434H57.2496ZM85.7664 212.434L90.4241 204.367L85.7491 196.273H76.4855L71.8277 204.341L76.5028 212.434H85.7664ZM114.283 212.434L118.932 204.367L114.266 196.273H105.037L100.379 204.341L105.054 212.434H114.283ZM142.8 212.434L147.458 204.367L142.886 196.273H133.588L128.939 204.341L133.605 212.434H142.8ZM171.317 212.434L175.975 204.367L171.299 196.273H162.148L157.49 204.341L162.165 212.434H171.317ZM199.834 212.434L204.491 204.367L199.816 196.273H190.509L185.852 204.341L190.527 212.434H199.834ZM228.394 212.434L233.043 204.367L228.376 196.273H219.061L214.403 204.341L219.078 212.434H228.394ZM256.91 212.434L261.568 204.367L256.893 196.273H247.578L242.928 204.341L247.595 212.434H256.91ZM271.169 204.194L275.835 196.109L271.169 188.024H261.853L257.195 196.109L261.853 204.194H271.169ZM261.853 39.5656L257.195 47.6505L261.853 55.7353H271.169L275.835 47.6505L271.169 39.5656H261.853ZM247.578 47.8148L242.928 55.8823L247.595 63.9758H256.91L261.568 55.9083L256.893 47.8148H247.578ZM233.302 39.5656L228.636 47.6505L233.302 55.7353H242.842L247.5 47.6505L242.842 39.5656H233.302ZM219.026 47.8148L214.368 55.8823L219.043 63.9758H228.584L233.233 55.9083L228.566 47.8148H219.026ZM204.751 39.5656L200.084 47.6505L204.751 55.7353H214.291L218.931 47.6505L214.273 39.5656H204.751ZM190.475 47.8148L185.817 55.8823L190.492 63.9758H200.024L204.681 55.9083L200.006 47.8148H190.475ZM176.199 39.5656L171.533 47.6505L176.199 55.7353H185.731L190.397 47.6505L185.731 39.5656H176.199ZM161.923 47.8148L157.266 55.8823L161.941 63.9758H171.472L176.13 55.9083L171.455 47.8148H161.923ZM147.639 39.5656L142.981 47.6505L147.639 55.7353H157.179L161.846 47.6505L157.179 39.5656H147.639ZM133.364 47.8148L128.714 55.8823L133.381 63.9758H142.886L147.544 55.9083L142.886 47.8148H133.364ZM119.088 39.5656L114.421 47.6505L119.088 55.7353H128.628L133.294 47.6505L128.628 39.5656H119.088ZM104.812 47.8148L100.154 55.8823L104.829 63.9758H114.37L119.019 55.9083L114.352 47.8148H104.812ZM90.5365 39.5656L85.8701 47.6505L90.5365 55.7353H100.068L104.734 47.6505L100.068 39.5656H90.5365ZM76.2608 47.8148L71.6031 55.8823L76.2781 63.9758H85.8096L90.4673 55.9083L85.7923 47.8148H76.2608ZM61.9851 39.5656L57.3188 47.6505L61.9851 55.7353H71.5166L76.183 47.6505L71.5166 39.5656H61.9851ZM47.7095 47.8148L43.0517 55.8823L47.7267 63.9758H57.2583L61.916 55.9083L57.241 47.8148H47.7095ZM33.4251 39.5656L28.7674 47.6505L33.4251 55.7353H42.9653L47.6317 47.6505L42.9653 39.5656H33.4251ZM57.241 195.91L61.9074 187.825L57.241 179.74H47.9341L43.2677 187.825L47.9341 195.91H57.241ZM71.5166 187.661L76.183 179.576L71.5166 171.491H62.2098L57.5434 179.576L62.2098 187.661H71.5166ZM85.7923 195.91L90.4587 187.825L85.7923 179.74H76.4855L71.8191 187.825L76.4855 195.91H85.7923ZM100.068 187.696L104.734 179.611L100.068 171.526H90.7611L86.0948 179.611L90.7611 187.696H100.068ZM114.37 195.91L119.027 187.825L114.37 179.775H105.037L100.37 187.86L105.037 195.91H114.37ZM128.628 187.696L133.294 179.611L128.628 171.526H119.313L114.646 179.611L119.313 187.696H128.628ZM142.886 195.91L147.553 187.825L142.886 179.74H133.588L128.93 187.825L133.588 195.91H142.886ZM157.179 187.696L161.846 179.611L157.179 171.526H147.864L143.206 179.611L147.864 187.696H157.179ZM171.455 195.91L176.121 187.825L171.455 179.74H162.148L157.482 187.825L162.148 195.91H171.455ZM185.731 187.661L190.397 179.576L185.731 171.491H176.424L171.757 179.576L176.424 187.661H185.731ZM200.006 195.91L204.673 187.825L200.006 179.74H190.7L186.033 187.825L190.7 195.91H200.006ZM214.291 187.661L218.931 179.611L214.273 171.526H204.958L200.292 179.611L204.958 187.696L214.291 187.661ZM228.566 195.91L233.224 187.825L228.566 179.74H219.251L214.585 187.825L219.251 195.91H228.566ZM242.842 187.661L247.5 179.576L242.842 171.491H233.527L228.86 179.576L233.527 187.661H242.842ZM257.118 195.91L261.784 187.825L257.118 179.74H247.802L243.144 187.825L247.802 195.91H257.118ZM247.82 64.2698L243.153 72.372L247.802 80.4395H257.118L261.793 72.346L257.135 64.2698H247.82ZM219.303 64.2698L214.628 72.372L219.285 80.4395H228.566L233.233 72.346L228.584 64.2698H219.303ZM190.786 64.2698L186.111 72.372L190.769 80.4395H200.006L204.681 72.346L200.024 64.2698H190.786ZM162.269 64.2698L157.594 72.372L162.252 80.4395H171.455L176.13 72.346L171.472 64.2698H162.269ZM133.709 64.2698L129.043 72.372L133.692 80.4395H142.886L147.561 72.346L142.886 64.3044L133.709 64.2698ZM105.192 64.2698L100.517 72.372L105.037 80.4741H114.37L119.036 72.3806L114.37 64.3044L105.192 64.2698ZM76.6756 64.2698L72.0006 72.372L76.6583 80.4395H85.7923L90.4673 72.346L85.8096 64.2698H76.6756ZM48.1588 64.2698L43.4838 72.372L48.1415 80.4395H57.241L61.916 72.346L57.2583 64.2698H48.1588ZM48.1588 179.412H57.241L61.916 171.318L57.2583 163.242H47.9514L43.2764 171.344L48.1588 179.412ZM86.017 179.412L90.692 171.318L86.0343 163.242H76.5028L71.8277 171.344L76.4855 179.481L86.017 179.412ZM114.534 179.412L119.2 171.318L114.37 163.277H105.054L100.379 171.379L105.037 179.481L114.534 179.412ZM143.051 179.412L147.726 171.318L142.886 163.277H133.605L128.939 171.379L133.588 179.481L143.051 179.412ZM171.567 179.412L176.242 171.318L171.585 163.242H162.165L157.49 171.344L162.148 179.481L171.567 179.412ZM200.084 179.412L204.759 171.318L200.101 163.242H190.795L186.12 171.344L190.7 179.481L200.084 179.412ZM228.644 179.412L233.311 171.318L228.661 163.242H219.346L214.671 171.344L219.251 179.481L228.644 179.412ZM257.161 179.412L261.836 171.318L257.178 163.242H247.863L243.196 171.344L247.845 179.412H257.161ZM247.845 80.7681L243.188 88.8529L247.845 96.9378H257.161L261.827 88.8529L257.161 80.7681H247.845ZM219.329 80.7681L214.662 88.8529L219.329 96.9378H228.566L233.224 88.8529L228.566 80.7681H219.329ZM190.812 80.7681L186.145 88.8529L190.812 96.9378H200.006L204.673 88.8529L200.006 80.7681H190.812ZM162.295 80.7681L157.629 88.8529L162.295 96.9378H171.455L176.121 88.8529L171.455 80.7681H162.295ZM133.735 80.7681L129.077 88.8529L133.735 96.9378H142.886L147.553 88.8529L142.886 80.7681H133.735ZM105.218 80.7681L100.552 88.8529L105.218 96.9378H114.37L119.027 88.8529L114.37 80.8027L105.218 80.7681ZM76.7015 80.7681L72.0351 88.8529L76.7015 96.9378H85.7923L90.4587 88.8529L85.7923 80.7681H76.7015ZM48.1847 80.7681L43.5183 88.8529L48.1847 96.9378H57.241L61.9074 88.8529L57.241 80.7681H48.1847ZM48.1847 130.254L43.5183 138.339L48.1847 146.424H57.241L61.9074 138.339L57.241 130.254H48.1847ZM85.8096 162.948L90.4673 154.881L85.7923 146.787H76.4855L71.8277 154.855L76.5028 162.948H85.8096ZM114.326 162.948L118.975 154.881L114.309 146.787H105.037L100.379 154.855L105.054 162.948H114.326ZM142.843 162.948L147.501 154.881L142.886 146.787H133.588L128.939 154.855L133.605 162.948H142.843ZM171.36 162.948L176.018 154.881L171.343 146.787H162.148L157.49 154.855L162.165 162.948H171.36ZM199.877 162.948L204.534 154.881L199.859 146.787H190.553L185.895 154.855L190.57 162.948H199.877ZM228.437 162.948L233.086 154.881L228.419 146.787H219.104L214.446 154.855L219.121 162.948H228.437ZM256.954 146.459L261.62 138.374L256.954 130.289H247.638L242.98 138.374L247.638 146.459H256.954ZM233.362 89.0518L228.696 97.1367L233.362 105.222H242.842L247.5 97.1367L242.842 89.0518H233.362ZM219.251 97.3355L214.593 105.403L219.268 113.497H228.584L233.233 105.429L228.566 97.3355H219.251ZM204.975 89.0864L200.309 97.1713L204.975 105.256H214.291L218.931 97.1367L214.273 89.0518L204.975 89.0864ZM190.7 97.3355L186.042 105.403L190.717 113.497H200.024L204.681 105.429L200.006 97.3355H190.7ZM176.424 89.0864L171.757 97.1713L176.424 105.256H185.731L190.397 97.1713L185.731 89.0864H176.424ZM162.148 97.3355L157.49 105.403L162.165 113.497H171.472L176.13 105.429L171.455 97.3355H162.148ZM147.864 89.0864L143.206 97.1713L147.864 105.256H157.179L161.846 97.1713L157.179 89.0864H147.864ZM133.588 97.3355L128.939 105.403L133.605 113.497H142.886L147.544 105.429L142.886 97.3355H133.588ZM119.313 89.0864L114.646 97.1713L119.313 105.256H128.628L133.294 97.1713L128.628 89.0864H119.313ZM105.037 97.3355L100.379 105.403L105.054 113.497H114.37L119.019 105.429L114.37 97.3355H105.037ZM90.7611 89.0864L86.0948 97.1713L90.7611 105.256H100.068L104.734 97.1713L100.068 89.0864H90.7611ZM76.4855 97.3355L71.8277 105.403L76.5028 113.497H85.8096L90.4673 105.429L85.7923 97.3355H76.4855ZM62.2098 89.0864L57.5434 97.1713L62.2098 105.256H71.5166L76.183 97.1713L71.5166 89.0864H62.2098ZM71.5166 138.244L76.183 130.159L71.5166 122.074H62.2098L57.5434 130.159L62.2098 138.244H71.5166ZM85.7923 146.493L90.4587 138.408L85.7923 130.323H76.4855L71.8191 138.408L76.4855 146.493H85.7923ZM100.068 138.244L104.734 130.159L100.068 122.074H90.7611L86.0948 130.159L90.7611 138.244H100.068ZM114.37 146.459L119.027 138.374L114.37 130.289H105.037L100.37 138.374L105.037 146.459H114.37ZM128.628 138.209L133.294 130.125L128.628 122.04H119.313L114.646 130.125L119.313 138.209H128.628ZM142.886 146.459L147.553 138.374L142.886 130.289H133.588L128.93 138.374L133.588 146.459H142.886ZM157.179 138.209L161.846 130.125L157.179 122.04H147.864L143.206 130.125L147.864 138.209H157.179ZM171.455 146.459L176.121 138.374L171.455 130.289H162.148L157.482 138.374L162.148 146.459H171.455ZM185.731 138.209L190.397 130.125L185.731 122.04H176.424L171.757 130.125L176.424 138.209H185.731ZM200.006 146.459L204.673 138.374L200.006 130.289H190.7L186.033 138.374L190.7 146.459H200.006ZM214.291 138.209L218.931 130.125L214.273 122.04H204.958L200.292 130.125L204.958 138.209H214.291ZM228.566 146.459L233.224 138.374L228.566 130.289H219.251L214.585 138.374L219.251 146.459H228.566ZM242.842 138.209L247.5 130.125L242.842 122.04H233.527L228.86 130.125L233.527 138.209H242.842ZM219.268 113.765L214.61 121.893L219.268 129.96H228.566L233.233 121.867L228.584 113.791L219.268 113.765ZM190.751 113.765L186.076 121.867L190.734 129.934H200.006L204.681 121.841L200.024 113.765H190.751ZM162.235 113.765L157.49 121.893L162.148 129.96H171.455L176.13 121.867L171.472 113.791L162.235 113.765ZM133.675 113.765L129.008 121.867L133.657 129.934H142.886L147.561 121.841L142.886 113.765H133.675ZM105.158 113.765L100.483 121.867L105.141 129.934H114.37L119.036 121.841L114.37 113.765H105.158ZM76.641 113.765L71.966 121.867L76.6237 129.934H85.7923L90.4673 121.841L85.8096 113.765H76.641ZM62.3654 105.516L57.699 113.6L62.3654 121.685H71.5339L76.2003 113.6L71.5339 105.516H62.3654ZM90.8821 105.516L86.2158 113.6L90.8821 121.685H100.085L104.752 113.6L100.085 105.516H90.8821ZM119.399 105.516L114.733 113.6L119.399 121.685H128.645L133.312 113.6L128.645 105.516H119.399ZM147.916 105.516L143.258 113.6L147.916 121.685H157.197L161.898 113.626L157.231 105.541L147.916 105.516ZM176.433 105.516L171.766 113.6L176.433 121.685H185.748L190.414 113.6L185.748 105.516H176.433ZM204.949 105.516L200.283 113.6L204.949 121.685H214.308L218.931 113.626L214.273 105.541L204.949 105.516ZM233.466 105.516L228.808 113.6L233.466 121.685H242.859L247.526 113.6L242.859 105.516H233.466ZM242.764 154.682L247.422 146.597L242.764 138.512H233.449L228.782 146.597L233.449 154.682H242.764ZM214.247 154.682L218.931 146.623L214.273 138.538H204.958L200.292 146.623L204.958 154.708L214.247 154.682ZM185.687 154.682L190.414 146.623L185.748 138.538H176.441L171.775 146.623L176.441 154.708L185.687 154.682ZM157.171 154.682L161.846 146.623L157.179 138.538H147.864L143.206 146.623L147.864 154.708L157.171 154.682ZM128.654 154.682L133.294 146.623L128.628 138.538H119.313L114.646 146.623L119.313 154.708L128.654 154.682ZM100.094 154.682L104.734 146.623L100.068 138.538H90.7611L86.0948 146.623L90.7611 154.708L100.094 154.682ZM71.5771 154.682L76.183 146.623L71.5166 138.538H62.2098L57.5434 146.623L62.2098 154.708L71.5771 154.682ZM62.2703 72.5363L57.6039 80.6211L62.2703 88.7059H71.5166L76.183 80.6211L71.5166 72.5363H62.2703ZM90.7871 72.5363L86.1207 80.6211L90.7611 88.6886H100.068L104.734 80.6038L100.068 72.5189L90.7871 72.5363ZM119.304 72.5363L114.637 80.6211L119.313 88.6886H128.628L133.294 80.6038L128.628 72.5189L119.304 72.5363ZM147.821 72.5363L143.163 80.6211L147.864 88.6886H157.179L161.846 80.6038L157.179 72.5189L147.821 72.5363ZM176.337 72.5363L171.671 80.6211L176.337 88.7059H185.731L190.397 80.6211L185.731 72.5363H176.337ZM204.854 72.5363L200.188 80.6211L204.854 88.7059H214.291L218.931 80.6384L214.273 72.5535L204.854 72.5363ZM233.371 72.5363L228.705 80.6211L233.371 88.7059H242.842L247.5 80.6211L242.842 72.5363H233.371ZM257.118 97.3355H247.802L243.153 105.403L247.82 113.497H257.135L261.793 105.429L257.118 97.3355ZM257.118 113.825H247.802L243.136 121.927L247.785 129.995H257.1L261.775 121.901L257.118 113.825ZM257.118 146.822H247.802L243.153 154.889L247.82 162.983H257.135L261.793 154.915L257.118 146.822ZM242.859 171.232L247.526 163.147L242.859 155.062H233.544L228.886 163.147L233.544 171.232H242.859ZM214.343 171.232L218.931 163.112L214.273 155.028H204.958L200.292 163.112L204.958 171.197L214.343 171.232ZM185.783 171.232L190.449 163.147L185.783 155.062H176.476L171.809 163.147L176.476 171.232H185.783ZM157.266 171.232L161.898 163.112L157.231 155.028H147.881L143.223 163.112L147.881 171.197L157.266 171.232ZM128.749 171.232L133.415 163.147L128.749 155.062H119.33L114.663 163.147L119.33 171.232H128.749ZM100.189 171.232L104.855 163.147L100.189 155.062H90.7784L86.1121 163.147L90.7784 171.232H100.189ZM71.6722 171.232L76.3386 163.147L71.6722 155.062H62.3654L57.699 163.147L62.3654 171.232H71.6722ZM48.0897 162.983H57.2583L61.916 154.915L57.241 146.822H47.9341L43.2764 154.889L48.0897 162.983ZM48.0897 129.995H57.241L61.916 121.901L57.2583 113.825H47.9514L43.2764 121.927L48.0897 129.995ZM48.0897 113.497H57.2583L61.916 105.429L57.241 97.3355H47.9341L43.2764 105.403L48.0897 113.497ZM62.3654 56.0898L57.699 64.1747L62.3654 72.2595H71.5339L76.2003 64.1747L71.5339 56.0898H62.3654ZM90.8821 56.0898L86.2158 64.1747L90.7784 72.2595H100.085L104.752 64.1747L100.085 56.0898H90.8821ZM119.399 56.0898L114.733 64.1747L119.33 72.2595H128.645L133.312 64.1747L128.645 56.0898H119.399ZM147.916 56.0898L143.258 64.1747L147.881 72.2595H157.197L161.898 64.1401L157.231 56.0553L147.916 56.0898ZM176.433 56.0898L171.766 64.1747L176.433 72.2595H185.748L190.414 64.1747L185.748 56.0898H176.433ZM204.949 56.0898L200.283 64.1747L204.949 72.2595H214.308L218.931 64.1401L214.273 56.0553L204.949 56.0898ZM233.466 56.0898L228.808 64.1747L233.544 72.2595H242.859L247.526 64.1747L242.859 56.0898H233.466ZM261.983 56.0898L257.325 64.1747L261.983 72.2595H271.298L275.965 64.1747L271.298 56.0898H261.983ZM261.983 72.5881L257.325 80.673L261.983 88.7578H271.298L275.965 80.673L271.298 72.5881H261.983ZM261.983 89.0864L257.325 97.1713L261.983 105.256H271.298L275.965 97.1713L271.298 89.0864H261.983ZM261.983 105.576L257.325 113.661L261.983 121.746H271.298L275.965 113.661L271.298 105.576H261.983ZM261.983 122.074L257.325 130.159L261.983 138.244H271.298L275.965 130.159L271.298 122.074H261.983ZM261.983 138.573L257.325 146.657L261.983 154.742H271.298L275.965 146.657L271.298 138.573H261.983ZM261.983 155.062L257.325 163.147L261.983 171.232H271.298L275.965 163.147L271.298 155.062H261.983ZM261.983 171.56L257.325 179.645L261.983 187.73H271.298L275.965 179.645L271.298 171.56H261.983ZM242.747 204.228L247.405 196.144L242.747 188.059H233.432L228.765 196.144L233.432 204.228H242.747ZM214.23 204.228L218.931 196.109L214.273 188.024H204.958L200.292 196.109L204.958 204.194L214.23 204.228ZM185.67 204.228L190.337 196.144L185.67 188.059H176.363L171.697 196.144L176.363 204.228H185.67ZM157.153 204.228L161.82 196.144L157.153 188.059H147.864L143.206 196.144L147.864 204.228H157.153ZM128.637 204.228L133.303 196.144L128.637 188.059H119.313L114.646 196.144L119.313 204.228H128.637ZM100.077 204.228L104.743 196.144L100.077 188.059H90.7611L86.0948 196.144L90.7611 204.228H100.077ZM71.5598 204.228L76.2263 196.144L71.5598 188.059H62.253L57.5866 196.144L62.253 204.228H71.5598ZM33.693 187.73H42.9653L47.6317 179.645L42.9653 171.56H33.6498L28.9921 179.645L33.693 187.73ZM43.0258 171.232L47.6922 163.147L43.0258 155.062H33.7103L29.0525 163.147L33.7103 171.232H43.0258ZM43.0258 154.742L47.6922 146.657L43.0258 138.573H33.7103L28.9921 146.623L33.6498 154.708L43.0258 154.742ZM33.7103 138.244H42.9653L47.6317 130.159L42.9653 122.074H33.6498L28.9921 130.159L33.7103 138.244ZM43.0431 121.746L47.7095 113.661L43.0431 105.576H33.7276L29.0698 113.661L33.7276 121.746H43.0431ZM43.0431 105.256L47.7095 97.1713L43.0431 89.0864H33.7276L29.0698 97.1713L33.7276 105.256H43.0431ZM33.6498 88.6886H42.9653L47.6317 80.6038L42.9653 72.5189H33.6498L28.9921 80.6038L33.6498 88.6886ZM42.9826 72.2595L47.649 64.1747L42.9826 56.0898H33.6671L29.0094 64.1747L33.6671 72.2595H42.9826ZM33.6498 23.1019L28.9921 31.1868L33.6498 39.2716H42.9653L47.6317 31.1868L42.9653 23.1019H33.6498ZM62.1666 23.1019L57.5002 31.1868L62.1666 39.2716H71.5166L76.183 31.1868L71.5166 23.1019H62.1666ZM90.6834 23.1019L86.017 31.1868L90.6834 39.2716H100.068L104.734 31.1868L100.068 23.1019H90.6834ZM119.2 23.1019L114.534 31.1868L119.2 39.2716H128.628L133.294 31.1868L128.628 23.1019H119.2ZM147.717 23.1019L143.059 31.1868L147.717 39.2716H157.179L161.846 31.1868L157.179 23.1019H147.717ZM176.234 23.1019L171.567 31.1868L176.234 39.2716H185.731L190.397 31.1868L185.731 23.1019H176.234ZM204.751 23.1019L200.084 31.1868L204.751 39.2716H214.291L218.931 31.1522L214.273 23.0673L204.751 23.1019ZM233.267 23.1019L228.601 31.1868L233.267 39.2716H242.842L247.5 31.1868L242.842 23.1019H233.267ZM261.784 23.1019L257.126 31.1868L261.784 39.2716H271.1L275.766 31.1868L271.1 23.1019H261.784ZM271.117 220.718L275.783 212.633L271.117 204.548H261.801L257.144 212.633L261.801 220.718H271.117ZM242.6 220.718L247.266 212.633L242.6 204.548H233.285L228.627 212.633L233.285 220.718H242.6ZM214.083 220.718L218.931 212.599L214.273 204.514H204.958L200.292 212.599L204.958 220.684L214.083 220.718ZM185.523 220.718L190.414 212.599L185.748 204.514H176.441L171.775 212.599L176.441 220.684L185.523 220.718ZM157.007 220.718L161.898 212.599L157.197 204.557H147.881L143.223 212.642L147.881 220.727L157.007 220.718ZM128.49 220.718L133.156 212.633L128.49 204.548H119.33L114.663 212.633L119.33 220.718H128.49ZM99.9297 220.718L104.596 212.633L99.9297 204.548H90.7784L86.1121 212.633L90.7784 220.718H99.9297ZM71.413 220.718L76.0793 212.633L71.413 204.548H62.1061L57.4397 212.633L62.1061 220.718H71.413ZM42.8962 220.718L47.5625 212.633L42.8962 204.548H33.5807L28.9229 212.633L33.5807 220.718H42.8962ZM28.9229 14.6885L33.5807 22.7734H42.9826L47.649 14.6885L42.9826 6.60367H33.6671L28.9229 14.6885ZM57.4397 14.6885L62.1061 22.7734H71.5339L76.2003 14.6885L71.5339 6.60367H62.2271L57.4397 14.6885ZM85.9565 14.6885L90.6229 22.7734H100.085L104.752 14.6885L100.085 6.60367H90.7784L85.9565 14.6885ZM114.473 14.6885L119.14 22.7734H128.645L133.312 14.6885L128.645 6.60367H119.33L114.473 14.6885ZM142.99 14.6885L147.648 22.7734H157.197L161.898 14.6539L157.197 6.54314H147.881L142.99 14.6885ZM171.507 14.6885L176.173 22.7734H185.748L190.414 14.6885L185.748 6.60367H176.441L171.507 14.6885ZM200.024 14.6885L204.69 22.7734H214.308L218.931 14.6539L214.273 6.56908H204.958L200.024 14.6885ZM228.54 14.6885L233.198 22.7734H242.859L247.526 14.6885L242.859 6.60367H233.544L228.54 14.6885ZM257.057 14.6885L261.715 22.7734H271.03L275.697 14.6885L271.03 6.60367H261.715L257.057 14.6885ZM261.378 237.381L256.712 229.296H247.396L243.127 237.346L247.785 245.431H257.1L261.378 237.381ZM232.818 237.381L228.16 229.296H218.845L214.178 237.381L218.845 245.466H228.566L232.818 237.381ZM204.301 237.381L199.635 229.296H190.328L185.662 237.381L190.328 245.466H200.006L204.301 237.381ZM175.784 237.381L171.118 229.296H162.148L157.482 237.381L162.148 245.466H171.455L175.784 237.381ZM147.268 237.381L142.886 229.261H133.588L128.93 237.346L133.588 245.431H142.886L147.268 237.381ZM118.708 237.381L114.37 229.261H105.037L100.37 237.346L105.037 245.431H114.37L118.708 237.381ZM90.1908 237.381L85.5244 229.296H76.4855L71.8191 237.381L76.4855 245.466H85.7923L90.1908 237.381ZM61.674 237.381L57.0076 229.296H47.7008L43.0344 237.381L47.7008 245.466H57.241L61.674 237.381ZM4.84784 55.7958H14.1806L18.8383 47.711L14.1806 39.6262H4.84784L0.19011 47.711L4.84784 55.7958ZM0.19011 31.2127L4.84784 39.2976H14.1806L18.8383 31.2127L14.1806 23.1279H4.84784L0.19011 31.2127ZM19.1408 31.0484H28.6896L33.3646 22.955L28.7069 14.8788H19.3741L14.7164 22.9636L19.1408 31.0484ZM28.4736 -1.61088H19.1408L14.4831 6.47397L19.1408 14.5502H28.4736L33.14 6.47397L28.4736 -1.61088ZM56.9904 -1.61088H47.6662L43.0085 6.45666L47.6835 14.5502H57.2583L61.9246 6.47397L56.9904 -1.61088ZM85.5072 -1.61088H76.4855L71.8277 6.45666L76.5028 14.5502H85.8096L90.476 6.47397L85.5072 -1.61088ZM114.024 -1.61088H105.037L100.379 6.45666L105.054 14.5502H114.37L119.027 6.47397L114.024 -1.61088ZM142.541 -1.61088H133.208L128.559 6.45666L133.225 14.5502H142.886L147.553 6.47397L142.541 -1.61088ZM171.058 -1.61088H162.148L157.49 6.45666L162.165 14.5502H171.472L176.139 6.47397L171.058 -1.61088ZM199.574 -1.61088H190.25L185.592 6.45666L190.267 14.5502H200.024L204.69 6.47397L199.574 -1.61088ZM228.134 -1.61088H218.802L214.144 6.45666L218.819 14.5502H228.584L233.241 6.47397L228.134 -1.61088ZM256.651 -1.61088H247.318L242.669 6.45666L247.336 14.5502H256.651L261.317 6.47397L256.651 -1.61088ZM285.168 -1.61088H275.844L271.186 6.45666L275.861 14.5502H285.168L289.834 6.47397L285.168 -1.61088ZM304.127 14.7145L299.461 6.62961H290.655L285.989 14.7145L290.655 22.7993H299.979L304.127 14.7145ZM285.168 14.8788H275.861L271.186 22.9809L275.844 31.0484H285.168L289.834 22.9636L285.168 14.8788ZM285.168 31.377H275.844L271.177 39.4619L275.844 47.5467H285.168L289.834 39.4619L285.168 31.377ZM285.168 47.8753H275.844L271.186 55.9429L275.861 64.0363H285.168L289.834 55.9601L285.168 47.8753ZM304.127 64.2006L299.461 56.1158H290.655L285.989 64.2006L290.655 72.2595H299.979L304.127 64.2006ZM285.168 64.3649H275.861L271.186 72.4671L275.844 80.5346H285.168L289.834 72.4498L285.168 64.3649ZM285.168 80.8632H275.844L271.177 88.948L275.844 97.0329H285.168L289.834 88.948L285.168 80.8632ZM285.168 97.3615H275.844L271.186 105.429L275.861 113.523H285.168L289.834 105.446L285.168 97.3615ZM304.127 113.687L299.461 105.602H290.655L285.989 113.687L290.655 121.772H299.979L304.127 113.687ZM285.168 113.851H275.861L271.186 121.953L275.844 130.021H285.168L289.834 121.936L285.168 113.851ZM285.168 130.349H275.844L271.177 138.434L275.844 146.519H285.168L289.834 138.434L285.168 130.349ZM285.168 146.848H275.844L271.186 154.915L275.861 163.009H285.168L289.834 154.924L285.168 146.848ZM304.127 163.173L299.461 155.088H290.655L285.989 163.173L290.655 171.258H299.979L304.127 163.173ZM285.168 163.337H275.861L271.186 171.439L275.844 179.507H285.168L289.834 171.422L285.168 163.337ZM285.168 179.836H275.844L271.177 187.92L275.844 196.005H285.168L289.834 187.92L285.168 179.836ZM285.168 196.334H275.844L271.186 204.401L275.861 212.495H285.168L289.834 204.41L285.168 196.334ZM304.127 212.659L299.461 204.574H290.655L285.989 212.659L290.655 220.744H299.979L304.127 212.659ZM285.168 212.823H275.861L271.186 220.926L275.844 228.993H285.168L289.834 220.908L285.168 212.823ZM289.834 237.407L285.168 229.322H275.844L271.177 237.407L275.844 245.491H285.168L289.834 237.407ZM261.551 253.741H270.875L275.541 245.656L270.875 237.571H261.559L256.893 245.664L261.551 253.741ZM232.991 253.741H242.324L246.981 245.656L242.324 237.571H233.008L228.342 245.664L232.991 253.741ZM204.474 253.741H213.807L218.931 245.595L214.273 237.51H204.958L200.283 245.604L204.474 253.741ZM175.957 253.741H185.731L190.414 245.595L185.748 237.51H176.441L171.766 245.604L175.957 253.741ZM147.44 253.741H157.179L161.846 245.656L157.179 237.571H147.864L143.197 245.664L147.44 253.741ZM118.88 253.741H128.628L133.294 245.656L128.628 237.571H119.313L114.637 245.664L118.88 253.741ZM90.3637 253.741H100.068L104.734 245.656L100.068 237.571H90.7611L86.0861 245.664L90.3637 253.741ZM61.8469 253.741H71.5166L76.183 245.656L71.5166 237.571H62.2098L57.5348 245.664L61.8469 253.741ZM33.2869 253.741H42.6196L47.286 245.656L42.6196 237.571H33.3042L28.6378 245.664L33.2869 253.741ZM4.77009 253.741H14.1029L18.7606 245.656L14.1029 237.571H4.77009L0.11234 245.656L4.77009 253.741ZM0.11234 229.157L4.77009 237.242H14.1029L18.7606 229.157L14.1029 221.073H4.77009L0.11234 229.157ZM19.063 228.993H28.6896L33.3646 220.9L28.7069 212.823H19.3741L14.7164 220.908L19.063 228.993ZM19.063 212.495H28.3958L33.0535 204.427L28.3785 196.334H19.063L14.4053 204.41L19.063 212.495ZM4.77009 204.254H14.1029L18.7606 196.17L14.1029 188.085H4.77009L0.11234 196.17L4.77009 204.254ZM0.11234 179.671L4.77009 187.756H14.1029L18.7606 179.671L14.1029 171.586H4.77009L0.11234 179.671ZM19.3741 179.481H28.6896L33.3646 171.388L28.7069 163.311H19.3741L14.7164 171.396L19.3741 179.481ZM19.3741 162.983H28.7069L33.3646 154.915L28.6896 146.822H19.3741L14.7164 154.898L19.3741 162.983ZM5.08117 154.742H14.4139L19.0717 146.623L14.4139 138.538H5.08117L0.42342 146.623L5.08117 154.742ZM0.42342 130.159L5.08117 138.244H14.4139L19.0717 130.159L14.4139 122.074H5.08117L0.42342 130.159ZM19.3741 129.995H28.6896L33.3646 121.901L28.7069 113.825H19.3741L14.7164 121.91L19.3741 129.995ZM19.3741 113.497H28.7069L33.3646 105.429L28.6896 97.3355H19.3741L14.7164 105.42L19.3741 113.497ZM5.08117 105.256H14.4139L19.0717 97.1713L14.4139 89.0864H5.08117L0.42342 97.1713L5.08117 105.256ZM0.42342 80.673L5.08117 88.6886H14.4139L19.0717 80.6038L14.4139 72.5189H5.08117L0.42342 80.673ZM19.3741 80.5087H28.6896L33.3646 72.4152L28.7069 64.339H19.3741L14.7164 72.4238L19.3741 80.5087Z" fill="url(#paint2_radial_2_567)"/>
<g style="mix-blend-mode:overlay">
<path d="M34.9668 46.1413C26.3717 30.8897 18.7924 14.9119 12.2938 -1.65512H14.4447C20.8355 14.4727 28.2487 30.0383 36.6243 44.9157C72.8932 109.529 148.411 202.558 304.596 289.64V292.159C147.404 204.714 71.3541 111.209 34.9668 46.1413Z" fill="url(#paint3_radial_2_567)"/>
<path d="M-185.824 702.309C-311.462 689.804 -398.464 642.961 -444.323 563.073C-471.456 515.867 -482.27 461.693 -476.488 402.05C-471.574 351.303 -454.288 296.993 -426.505 244.975C-421.039 234.717 -415.217 224.232 -409.594 214.087C-372.595 147.363 -334.471 78.5502 -345.146 -1.65512H-343.173C-332.517 79.2084 -370.799 148.316 -407.936 215.312C-413.56 225.435 -419.381 235.92 -424.847 246.178C-485.861 360.358 -492.353 475.401 -442.607 561.825C-397.162 641.1 -310.673 687.671 -185.607 700.04C-47.8715 713.657 40.2749 761.884 76.3465 843.157C84.9453 862.84 90.4563 884.114 92.626 906H90.6528C88.4576 884.497 83.001 863.604 74.5311 844.269C38.7752 763.655 -48.8187 715.926 -185.824 702.309Z" fill="url(#paint4_radial_2_567)"/>
</g>
</g>
<defs>
<linearGradient id="paint0_linear_2_567" x1="112.3" y1="203.125" x2="364.968" y2="-165.111" gradientUnits="userSpaceOnUse">
<stop offset="0.11" stop-color="#054BB0"/>
<stop offset="0.84" stop-color="#012863"/>
<stop offset="1" stop-color="#002052"/>
</linearGradient>
<linearGradient id="paint1_linear_2_567" x1="20.2066" y1="-156.392" x2="490.861" y2="288.411" gradientUnits="userSpaceOnUse">
<stop offset="0.11" stop-color="#054BB0"/>
<stop offset="0.84" stop-color="#012863"/>
<stop offset="1" stop-color="#002052"/>
</linearGradient>
<radialGradient id="paint2_radial_2_567" cx="0" cy="0" r="1" gradientUnits="userSpaceOnUse" gradientTransform="translate(128.861 109.502) rotate(180) scale(135.221 135.307)">
<stop stop-color="white"/>
<stop offset="0.25" stop-color="#B9B9B9" stop-opacity="0.73"/>
<stop offset="0.62" stop-color="#575757" stop-opacity="0.34"/>
<stop offset="0.88" stop-color="#181818" stop-opacity="0.09"/>
<stop offset="1" stop-opacity="0"/>
</radialGradient>
<radialGradient id="paint3_radial_2_567" cx="0" cy="0" r="1" gradientUnits="userSpaceOnUse" gradientTransform="translate(156.758 125.303) rotate(180) scale(154.449 177.636)">
<stop stop-color="#FFFEFF"/>
<stop offset="0.24" stop-color="#FAFBFC"/>
<stop offset="0.51" stop-color="#EDF2F2"/>
<stop offset="0.8" stop-color="#D6E3E3"/>
<stop offset="1" stop-color="#C2D6D5"/>
</radialGradient>
<radialGradient id="paint4_radial_2_567" cx="0" cy="0" r="1" gradientUnits="userSpaceOnUse" gradientTransform="translate(-192.73 452.161) rotate(180) scale(344.318 396.011)">
<stop stop-color="#FFFEFF"/>
<stop offset="0.24" stop-color="#FAFBFC"/>
<stop offset="0.51" stop-color="#EDF2F2"/>
<stop offset="0.8" stop-color="#D6E3E3"/>
<stop offset="1" stop-color="#C2D6D5"/>
</radialGradient>
<clipPath id="clip0_2_567">
<rect width="305" height="292" fill="white" transform="matrix(-1 0 0 1 305 0)"/>
</clipPath>
</defs>
</svg>
